<?xml version="1.0" standalone="no"?>
<!DOCTYPE svg PUBLIC "-//W3C//DTD SVG 20010904//EN"
 "http://www.w3.org/TR/2001/REC-SVG-20010904/DTD/svg10.dtd">
<svg version="1.0" xmlns="http://www.w3.org/2000/svg"
 width="598.000000pt" height="500.000000pt" viewBox="0 0 598.000000 500.000000"
 preserveAspectRatio="xMidYMid meet">

<g transform="translate(0.000000,500.000000) scale(0.100000,-0.100000)"
fill="#000000" stroke="none">
<path d="M2805 4493 c-278 -34 -444 -80 -676 -186 -298 -136 -616 -413 -814
-711 -156 -236 -267 -526 -309 -817 -21 -140 -21 -423 0 -570 115 -825 758
-1511 1574 -1678 163 -34 292 -44 480 -38 315 10 556 70 834 209 438 219 795
612 971 1067 38 97 96 312 117 431 8 48 13 157 13 300 0 250 -13 337 -80 568
-132 458 -447 870 -865 1132 -245 154 -545 257 -842 289 -91 10 -336 13 -403
4z m470 -238 c400 -70 732 -246 1005 -532 162 -170 277 -347 364 -560 91 -221
127 -414 127 -668 0 -260 -36 -448 -133 -682 -87 -213 -200 -385 -367 -557
-297 -305 -672 -488 -1096 -536 -566 -63 -1169 180 -1538 618 -666 795 -537
1957 288 2584 238 180 572 313 878 347 112 13 362 6 472 -14z"/>
<path d="M2105 3452 c-70 -23 -105 -96 -73 -155 6 -12 189 -197 406 -412 l395
-390 -394 -389 c-217 -214 -399 -398 -406 -410 -25 -43 -10 -113 31 -140 33
-21 78 -27 108 -13 15 7 204 185 419 397 216 212 396 386 400 388 5 2 188
-174 406 -391 434 -429 429 -425 502 -390 22 11 43 32 54 55 34 69 31 72 -399
496 -217 214 -394 392 -394 395 0 4 178 183 395 398 283 281 397 401 405 425
24 72 -53 153 -131 138 -28 -6 -100 -72 -399 -370 -387 -385 -430 -426 -441
-422 -4 2 -183 176 -399 388 -215 212 -403 390 -418 397 -30 13 -38 14 -67 5z"/>
</g>
</svg>
