<?xml version="1.0" standalone="no"?>
<!DOCTYPE svg PUBLIC "-//W3C//DTD SVG 20010904//EN"
 "http://www.w3.org/TR/2001/REC-SVG-20010904/DTD/svg10.dtd">
<svg version="1.0" xmlns="http://www.w3.org/2000/svg"
 width="590.000000pt" height="423.000000pt" viewBox="0 0 590.000000 423.000000"
 preserveAspectRatio="xMidYMid meet">

<g transform="translate(0.000000,423.000000) scale(0.100000,-0.100000)"
fill="#000000" stroke="none">
<path d="M2620 3636 c0 -9 5 -16 10 -16 6 0 10 4 10 9 0 6 -4 13 -10 16 -5 3
-10 -1 -10 -9z"/>
<path d="M2320 3592 c0 -5 7 -17 15 -28 15 -19 20 -8 9 20 -6 17 -24 22 -24 8z"/>
<path d="M3510 3559 c-19 -21 -61 -52 -92 -68 -56 -30 -57 -31 -71 -11 -14 20
-21 21 -134 11 -6 -1 -14 -10 -18 -20 -3 -11 -14 -23 -24 -26 -11 -3 -21 -14
-24 -25 -3 -11 -12 -23 -21 -26 -9 -3 -35 -24 -58 -45 -24 -21 -49 -39 -55
-39 -8 0 -13 -13 -13 -30 0 -33 -23 -41 -38 -15 -13 25 -79 31 -102 10 -11
-10 -26 -15 -34 -12 -14 6 -46 -21 -46 -39 0 -6 -6 -18 -13 -28 -11 -16 -18
-16 -55 -7 l-42 12 0 49 c0 56 -8 64 -52 55 -31 -7 -31 -7 -25 -61 3 -30 3
-55 -1 -55 -32 -6 -68 -4 -74 5 -4 6 -8 26 -8 44 0 22 -5 32 -15 32 -8 0 -15
-7 -15 -15 0 -8 -15 -18 -32 -23 -30 -9 -37 -6 -78 34 -48 46 -75 57 -62 26 6
-16 62 -70 146 -140 15 -12 24 -27 20 -33 -10 -17 -56 0 -94 35 -19 18 -55 45
-78 60 l-44 28 -15 -21 c-14 -21 -53 -29 -53 -11 0 6 -13 10 -30 10 -23 0 -30
4 -30 20 0 11 -6 20 -13 20 -22 0 -93 -87 -118 -145 -13 -30 -29 -55 -36 -55
-6 0 -18 -8 -25 -19 -20 -28 -95 -62 -131 -59 l-32 3 2 -62 c1 -49 7 -70 26
-95 37 -50 97 -179 97 -211 0 -17 -6 -30 -17 -34 -10 -3 -32 -19 -49 -35 -28
-26 -35 -28 -54 -18 -20 10 -22 10 -17 -3 3 -8 3 -17 1 -20 -5 -5 -40 3 -76
18 -13 5 -18 2 -18 -9 0 -19 -16 -21 -23 -3 -3 8 -12 5 -29 -10 -13 -13 -30
-23 -36 -23 -19 0 -14 -9 17 -36 26 -21 52 -72 30 -58 -5 3 -9 -1 -9 -8 -6
-157 -7 -152 22 -195 16 -23 34 -43 41 -46 17 -5 13 -87 -7 -124 -8 -17 -27
-38 -41 -47 l-26 -17 33 -41 c17 -22 40 -43 50 -46 10 -2 18 -11 18 -18 0 -8
9 -14 20 -14 21 0 87 -38 127 -73 18 -16 25 -18 37 -8 8 7 24 10 34 7 13 -5
33 4 62 29 23 19 43 35 45 35 19 0 55 -23 55 -35 0 -32 30 -14 42 26 11 39 10
43 -11 60 -20 16 -21 20 -7 25 9 3 16 13 16 22 0 12 5 10 24 -8 19 -17 24 -29
19 -51 -3 -18 -1 -29 6 -29 6 0 11 16 11 38 0 40 13 71 24 54 3 -6 24 -13 46
-17 22 -4 40 -9 40 -11 0 -2 -13 -16 -29 -31 -23 -22 -28 -36 -28 -68 1 -42
-31 -123 -58 -145 -9 -8 -27 -10 -46 -6 -27 5 -30 4 -24 -12 4 -9 7 -24 8 -32
0 -8 4 -20 9 -27 6 -7 0 -22 -19 -42 -24 -26 -38 -32 -90 -37 -48 -5 -60 -10
-56 -21 5 -13 -1 -14 -36 -8 -23 4 -54 2 -69 -3 -15 -6 -36 -13 -47 -18 -11
-4 -25 -8 -31 -8 -14 -1 -48 -36 -35 -36 6 0 11 -7 11 -15 0 -22 -32 -55 -52
-55 -19 0 -25 -25 -8 -35 6 -4 17 -1 26 5 11 10 21 8 52 -14 39 -27 76 -34 87
-16 3 6 18 10 33 10 32 0 68 26 85 60 10 19 21 25 49 26 28 1 43 8 63 33 17
19 36 31 51 31 24 0 24 -1 8 -25 -9 -14 -14 -28 -10 -32 3 -3 7 -4 9 -2 1 2 9
17 18 33 9 16 25 31 35 32 11 1 35 5 56 9 30 6 39 4 54 -14 11 -12 30 -21 46
-21 26 0 28 -3 28 -37 0 -20 -5 -51 -11 -68 -11 -28 -9 -34 15 -58 14 -14 26
-35 26 -46 0 -13 8 -21 23 -23 17 -2 21 -8 18 -28 -8 -57 -27 -95 -58 -115
-18 -11 -32 -27 -33 -36 0 -9 -7 -19 -15 -23 -11 -4 -15 -20 -15 -54 0 -36 -7
-59 -25 -86 -14 -20 -25 -39 -25 -41 0 -3 17 -5 38 -5 31 0 44 7 75 40 27 30
37 49 37 74 0 25 7 38 25 50 15 10 25 26 25 41 0 28 25 56 45 49 7 -3 23 0 35
6 16 8 25 8 35 0 10 -8 17 -6 28 11 10 13 22 19 31 16 9 -4 17 1 21 14 11 34
30 15 33 -32 3 -44 4 -45 31 -41 20 3 33 -2 43 -16 10 -15 18 -18 28 -11 24
14 37 11 73 -21 38 -33 62 -38 71 -15 3 8 12 15 21 15 8 0 15 9 15 19 0 10 7
22 16 25 9 3 14 13 10 21 -3 8 2 19 12 24 33 19 130 -96 119 -141 -3 -10 1
-31 9 -46 8 -15 14 -42 14 -60 0 -19 4 -31 10 -27 5 3 7 19 3 35 -3 17 -1 30
4 30 14 0 43 -34 43 -51 0 -18 40 -35 105 -45 28 -4 56 -8 64 -10 7 -1 25 2
40 8 14 5 40 12 58 14 l31 4 -5 -49 c-4 -46 -2 -52 32 -90 30 -33 44 -41 71
-41 32 0 34 2 34 33 0 19 -3 37 -7 41 -14 13 -32 81 -27 99 3 11 0 17 -9 17
-17 0 -27 21 -27 59 0 28 22 46 65 53 16 3 19 10 17 36 -3 27 1 34 23 42 18 7
31 6 44 -2 10 -6 25 -9 33 -6 12 5 13 17 5 75 -5 37 -11 70 -13 72 -7 8 -33
-21 -28 -33 2 -6 -5 -22 -18 -35 l-22 -24 -14 30 c-13 28 -12 33 12 71 14 23
37 49 51 58 15 10 24 23 21 31 -3 8 0 22 6 33 9 14 9 22 -3 36 -8 9 -14 36
-14 60 -1 36 -7 49 -38 80 -41 42 -55 77 -38 97 8 10 7 17 -1 25 -9 9 -9 15 0
24 10 10 15 10 21 -1 5 -8 7 -20 4 -28 -8 -21 17 -43 48 -43 27 0 29 2 29 43
0 31 -6 49 -25 70 -14 15 -30 27 -35 27 -4 0 -20 -14 -34 -31 -26 -31 -27 -31
-47 -13 -40 36 -62 75 -50 87 6 6 11 23 11 39 0 36 34 67 83 75 36 5 38 7 32
34 -5 22 -3 29 9 29 9 0 16 5 16 11 0 6 10 19 22 29 19 15 20 20 9 34 -20 24
-8 29 35 17 21 -6 40 -8 43 -6 2 3 -1 5 -7 5 -13 0 -5 30 12 45 23 21 36 56
30 80 -5 22 -3 25 20 25 32 0 35 17 4 22 -17 2 -23 10 -23 28 -1 14 -11 43
-24 63 l-23 38 22 69 c12 38 20 79 17 91 -4 15 -2 19 10 15 50 -19 59 -18 60
11 0 15 -1 20 -4 10 -3 -13 -11 -16 -31 -11 -40 10 -43 13 -32 35 8 15 7 19
-4 19 -7 0 -16 6 -19 14 -4 9 4 13 26 14 22 1 27 -2 17 -8 -12 -7 -9 -11 10
-18 27 -10 44 -6 35 9 -4 5 -1 9 4 9 6 0 11 -7 11 -16 0 -11 6 -15 20 -11 23
6 26 -3 8 -23 -11 -12 -10 -12 6 0 16 12 20 12 30 -1 6 -9 17 -14 25 -11 8 2
11 0 8 -5 -3 -5 9 -27 28 -49 36 -40 42 -54 25 -54 -5 0 -10 -7 -10 -15 0 -8
6 -15 14 -15 17 0 26 -22 26 -61 0 -19 -5 -29 -15 -29 -16 0 -20 -12 -8 -23 3
-4 12 -2 19 4 7 5 4 -7 -7 -28 -11 -21 -16 -46 -13 -58 4 -11 3 -17 -1 -13 -7
7 -45 -21 -45 -33 0 -16 61 24 99 66 28 30 50 45 66 45 20 0 25 5 25 24 0 14
-4 28 -10 31 -16 10 -12 45 10 81 13 20 20 46 18 67 -2 41 15 67 46 68 14 0
16 2 6 6 -25 9 -60 46 -60 63 0 9 5 21 11 27 17 17 6 57 -18 68 -30 13 -82
153 -61 166 7 5 18 9 24 9 13 0 69 58 62 65 -2 3 -22 -10 -44 -28 -76 -65
-100 -67 -133 -11 -16 26 -27 34 -50 34 -41 0 -83 53 -70 87 11 31 11 36 -1
28 -5 -3 -10 -15 -10 -26 0 -11 -11 -24 -26 -31 -24 -11 -29 -10 -48 15 l-22
28 -28 -22 c-33 -26 -63 -16 -59 20 2 12 -2 21 -7 21 -6 0 -10 7 -10 15 0 25
-24 7 -52 -40 -20 -32 -34 -45 -50 -45 -38 0 -52 14 -39 38 6 11 11 29 11 39
0 15 -4 14 -20 -7 -20 -24 -21 -24 -35 -6 -8 10 -12 23 -8 29 3 5 0 13 -7 17
-21 13 7 48 65 81 52 29 55 33 55 69 0 48 31 149 57 187 11 15 23 43 27 62 7
38 32 71 53 71 7 0 13 11 13 24 0 23 -2 24 -32 15 -46 -13 -51 -12 -45 11 7
27 -20 26 -49 -1 -23 -22 -83 -32 -105 -18 -12 8 -12 10 0 18 12 8 13 14 3 36
-10 22 -18 26 -39 22 -15 -3 -32 0 -38 7 -7 10 -18 3 -45 -25z m-1430 -939 c0
-15 7 -20 28 -20 39 0 44 -8 27 -40 -18 -35 -57 -48 -53 -18 4 29 -18 34 -26
6 -6 -20 -8 -21 -19 -7 -6 8 -20 18 -29 22 -29 11 -21 34 20 55 49 25 52 26
52 2z m91 -92 c0 -7 0 -32 -1 -55 -1 -32 2 -43 13 -43 10 0 13 7 11 18 -4 11
5 23 25 35 17 10 31 22 31 27 0 13 39 32 50 25 7 -4 6 -13 0 -26 -14 -25 2
-25 20 1 8 11 19 20 24 20 5 0 3 -8 -5 -17 -8 -10 -14 -35 -13 -55 1 -31 -3
-38 -22 -42 -15 -4 -24 -14 -24 -26 0 -10 -5 -22 -11 -25 -6 -4 -8 -13 -5 -20
2 -7 -2 -16 -11 -19 -20 -8 -42 21 -35 46 4 18 1 19 -34 12 -22 -4 -42 -11
-45 -17 -11 -17 -29 2 -20 21 18 35 28 101 18 111 -7 7 -6 15 3 26 15 18 30
20 31 3z m-511 -166 c0 -13 -12 -22 -22 -16 -10 6 -1 24 13 24 5 0 9 -4 9 -8z
m190 -4 c0 -4 -9 -8 -20 -8 -11 0 -20 4 -20 8 0 4 9 8 20 8 11 0 20 -4 20 -8z
m203 -17 c23 -5 33 -13 35 -29 4 -26 -6 -28 -34 -7 -10 8 -31 15 -45 15 -15 0
-39 6 -54 14 -14 8 -42 12 -61 11 -19 -2 -34 1 -34 6 0 10 126 3 193 -10z
m-233 -31 c0 -13 -5 -18 -15 -14 -8 4 -22 1 -30 -6 -23 -19 -18 -1 7 25 25 26
38 24 38 -5z m552 -122 c-7 -7 -12 -8 -12 -2 0 6 3 14 7 17 3 4 9 5 12 2 2 -3
-1 -11 -7 -17z m-101 -19 c5 -11 16 -19 24 -19 8 0 15 -5 15 -10 0 -16 -83 0
-97 18 -22 27 -15 39 17 34 17 -2 35 -13 41 -23z m3 -54 c2 -7 -5 -11 -17 -10
-11 1 -22 6 -24 11 -5 14 36 12 41 -1z m1286 -114 c5 -11 10 -22 10 -25 0 -10
-39 18 -44 31 -8 21 22 15 34 -6z m-1390 -17 c6 -16 4 -19 -16 -19 -32 2 -39
11 -23 29 17 19 30 16 39 -10z m1587 -50 c-3 -3 -12 -4 -19 -1 -8 3 -5 6 6 6
11 1 17 -2 13 -5z m-1717 -48 c0 -2 -7 -7 -16 -10 -8 -3 -12 -2 -9 4 6 10 25
14 25 6z m1010 -627 c0 -5 -7 -9 -15 -9 -9 0 -15 9 -15 21 0 18 2 19 15 9 8
-7 15 -16 15 -21z m1 -42 c-13 -13 -26 -3 -16 12 3 6 11 8 17 5 6 -4 6 -10 -1
-17z"/>
<path d="M2230 2359 c0 -5 5 -7 10 -4 6 3 10 8 10 11 0 2 -4 4 -10 4 -5 0 -10
-5 -10 -11z"/>
<path d="M3085 3558 c0 -25 40 -74 49 -60 6 11 -25 75 -39 79 -5 2 -10 -7 -10
-19z"/>
<path d="M2675 3550 c3 -5 8 -10 11 -10 2 0 4 5 4 10 0 6 -5 10 -11 10 -5 0
-7 -4 -4 -10z"/>
<path d="M2510 3544 c-27 -8 -40 -39 -30 -75 5 -19 13 -53 19 -75 6 -23 11
-55 11 -71 0 -32 32 -69 49 -58 6 3 11 16 11 27 0 11 8 35 19 52 15 26 17 43
12 106 -6 73 -7 75 -33 78 -16 2 -28 8 -28 13 0 9 -4 10 -30 3z"/>
<path d="M2788 3425 c-10 -22 -9 -29 9 -46 26 -26 60 -18 69 17 13 52 -56 77
-78 29z"/>
<path d="M2901 3414 c0 -11 3 -14 6 -6 3 7 2 16 -1 19 -3 4 -6 -2 -5 -13z"/>
<path d="M2054 3319 c-3 -6 0 -17 7 -25 12 -11 16 -9 26 11 10 22 9 25 -7 25
-11 0 -22 -5 -26 -11z"/>
<path d="M4399 3283 c-29 -35 -41 -53 -36 -53 2 0 17 16 31 35 28 36 31 49 5
18z"/>
<path d="M4005 3200 c-3 -5 -1 -10 4 -10 6 0 11 5 11 10 0 6 -2 10 -4 10 -3 0
-8 -4 -11 -10z"/>
<path d="M4037 3097 c-4 -10 -7 -26 -7 -35 1 -15 2 -15 11 1 6 10 9 25 7 35
-3 16 -4 15 -11 -1z"/>
<path d="M3620 3035 c0 -8 4 -15 9 -15 5 0 14 7 21 15 10 13 9 15 -9 15 -12 0
-21 -6 -21 -15z"/>
<path d="M4415 2980 c-10 -11 -14 -20 -8 -20 5 0 18 9 28 20 10 11 14 20 8 20
-5 0 -18 -9 -28 -20z"/>
<path d="M4156 2971 c-4 -6 -4 -16 -1 -21 9 -15 74 -46 113 -55 17 -3 32 -12
32 -18 0 -6 7 -4 16 5 10 9 14 24 10 33 -12 32 -156 80 -170 56z"/>
<path d="M4126 2906 c-8 -14 -12 -27 -7 -30 8 -5 35 43 28 51 -2 2 -12 -8 -21
-21z"/>
<path d="M4710 2782 c0 -15 24 -32 47 -32 26 0 31 25 7 34 -22 9 -54 7 -54 -2z"/>
<path d="M4475 2720 c-3 -5 -2 -10 4 -10 5 0 13 5 16 10 3 6 2 10 -4 10 -5 0
-13 -4 -16 -10z"/>
<path d="M4408 2693 c6 -2 18 -2 25 0 6 3 1 5 -13 5 -14 0 -19 -2 -12 -5z"/>
<path d="M4710 2670 c0 -5 4 -10 9 -10 6 0 13 5 16 10 3 6 -1 10 -9 10 -9 0
-16 -4 -16 -10z"/>
<path d="M4290 2621 c0 -9 24 -21 42 -21 6 0 6 6 -2 15 -14 16 -40 20 -40 6z"/>
<path d="M1755 2586 c17 -13 32 -22 34 -20 5 5 -42 43 -54 44 -5 0 4 -11 20
-24z"/>
<path d="M4386 2601 c-3 -5 1 -14 9 -21 12 -10 15 -10 15 3 0 19 -16 31 -24
18z"/>
<path d="M4490 2574 c-14 -8 -17 -13 -7 -10 10 3 25 6 33 6 8 0 14 5 14 10 0
14 -10 12 -40 -6z"/>
<path d="M4468 2403 c7 -3 16 -2 19 1 4 3 -2 6 -13 5 -11 0 -14 -3 -6 -6z"/>
<path d="M3940 2349 c0 -5 5 -7 10 -4 6 3 10 8 10 11 0 2 -4 4 -10 4 -5 0 -10
-5 -10 -11z"/>
<path d="M4000 2346 c0 -10 9 -16 21 -16 24 0 21 23 -4 28 -10 2 -17 -3 -17
-12z"/>
<path d="M3900 2322 c0 -8 92 -52 108 -52 27 0 20 22 -10 34 -43 17 -98 28
-98 18z"/>
<path d="M4490 2261 c-67 -19 -10 -70 59 -54 47 11 52 37 10 52 -35 12 -33 12
-69 2z"/>
<path d="M1528 2223 c-10 -2 -18 -9 -18 -14 0 -5 -14 -18 -31 -28 -19 -12 -26
-21 -19 -26 6 -4 25 7 42 24 18 17 38 31 45 31 7 0 13 5 13 10 0 10 -3 11 -32
3z"/>
<path d="M3985 2211 c-3 -5 -1 -12 5 -16 5 -3 10 1 10 9 0 18 -6 21 -15 7z"/>
<path d="M4430 2086 c0 -2 25 -18 56 -36 60 -34 86 -36 32 -2 -35 22 -88 44
-88 38z"/>
<path d="M4063 2038 c4 -11 -1 -18 -16 -22 -12 -3 -19 -7 -16 -10 3 -3 15 -3
27 1 24 6 29 27 10 39 -7 5 -9 2 -5 -8z"/>
<path d="M4860 2040 c8 -5 24 -9 35 -9 l20 0 -20 9 c-11 5 -27 9 -35 9 -13 1
-13 0 0 -9z"/>
<path d="M3900 2002 c0 -16 42 -12 47 4 2 7 -6 11 -22 10 -14 0 -25 -7 -25
-14z"/>
<path d="M3900 1942 c0 -5 18 -23 41 -41 22 -18 38 -35 36 -37 -2 -3 -26 5
-53 16 -36 15 -44 16 -29 4 19 -15 160 -84 172 -84 3 0 18 -9 34 -21 21 -15
29 -17 29 -7 0 15 -29 59 -30 45 0 -4 -14 0 -31 8 -43 23 -35 49 16 55 46 6
38 15 -20 25 -22 4 -51 14 -65 23 -27 17 -100 27 -100 14z"/>
<path d="M4165 1940 c-3 -5 3 -10 14 -10 12 0 21 -4 21 -10 0 -5 16 -10 35
-10 19 0 35 5 35 10 0 6 -15 10 -34 10 -19 0 -38 5 -41 10 -3 6 -10 10 -15 10
-5 0 -12 -4 -15 -10z"/>
<path d="M4210 1891 c0 -6 4 -13 10 -16 6 -3 7 1 4 9 -7 18 -14 21 -14 7z"/>
<path d="M4580 1850 c0 -5 5 -10 11 -10 5 0 7 5 4 10 -3 6 -8 10 -11 10 -2 0
-4 -4 -4 -10z"/>
<path d="M1586 1829 c-35 -21 -43 -33 -56 -81 -13 -45 10 -104 36 -94 9 3 17
6 19 6 1 0 22 25 45 55 23 30 48 55 56 55 9 0 12 10 9 31 -2 17 -6 34 -9 36
-13 13 -74 8 -100 -8z"/>
<path d="M3852 1765 c0 -16 2 -22 5 -12 2 9 2 23 0 30 -3 6 -5 -1 -5 -18z"/>
<path d="M1915 1709 c-4 -6 -5 -13 -2 -16 7 -7 27 6 27 18 0 12 -17 12 -25 -2z"/>
<path d="M4000 1700 c0 -5 5 -10 10 -10 6 0 10 5 10 10 0 6 -4 10 -10 10 -5 0
-10 -4 -10 -10z"/>
<path d="M4135 1677 c22 -20 49 -36 60 -36 l20 0 -20 15 c-11 9 -38 25 -60 36
l-40 20 40 -35z"/>
<path d="M1635 1690 c-3 -5 -1 -10 4 -10 6 0 11 5 11 10 0 6 -2 10 -4 10 -3 0
-8 -4 -11 -10z"/>
<path d="M3960 1675 c33 -19 46 -19 30 0 -7 8 -22 15 -34 15 -20 -1 -20 -2 4
-15z"/>
<path d="M1940 1665 c0 -8 7 -15 15 -15 8 0 15 7 15 15 0 8 -7 15 -15 15 -8 0
-15 -7 -15 -15z"/>
<path d="M1315 1652 c-36 -7 -55 -33 -55 -75 0 -26 -6 -44 -17 -53 -13 -10
-15 -16 -6 -22 7 -4 9 -13 3 -21 -11 -19 -2 -41 18 -41 8 0 23 -7 33 -16 19
-17 39 -11 39 12 0 8 -9 14 -21 14 -19 0 -21 4 -15 31 3 17 6 35 6 40 0 5 10
9 23 9 27 0 41 9 55 36 22 42 -17 95 -63 86z"/>
<path d="M1715 1630 c-4 -6 -10 -8 -15 -5 -12 7 -35 -24 -24 -34 12 -10 114
-2 114 10 0 5 -7 9 -15 9 -8 0 -15 7 -15 15 0 17 -35 21 -45 5z"/>
<path d="M1706 1561 c-4 -7 -5 -15 -2 -18 9 -9 19 4 14 18 -4 11 -6 11 -12 0z"/>
<path d="M3970 1521 c0 -12 5 -21 10 -21 6 0 10 6 10 14 0 8 -4 18 -10 21 -5
3 -10 -3 -10 -14z"/>
<path d="M1670 1504 c-12 -30 -8 -39 15 -31 17 7 21 42 5 52 -6 3 -15 -6 -20
-21z"/>
<path d="M4203 1478 c3 -13 15 -50 26 -83 12 -33 23 -72 26 -87 5 -29 25 -39
25 -14 0 7 10 20 22 28 26 18 23 29 -36 121 -37 58 -73 78 -63 35z"/>
<path d="M1665 1439 c-10 -15 0 -21 27 -17 l23 3 -22 13 c-15 8 -24 9 -28 1z"/>
<path d="M1375 1387 c-23 -17 -14 -47 15 -47 26 0 37 27 18 46 -12 12 -17 12
-33 1z"/>
<path d="M1444 1359 c-3 -6 -1 -16 5 -22 9 -9 14 -8 21 3 9 15 4 30 -10 30 -5
0 -12 -5 -16 -11z"/>
<path d="M1576 1319 c-15 -12 -26 -30 -26 -44 0 -26 42 -65 71 -65 27 0 59 36
59 65 0 29 -32 65 -59 65 -10 0 -30 -9 -45 -21z"/>
<path d="M4480 1310 c20 -13 40 -13 40 0 0 6 -12 10 -27 10 -22 0 -25 -2 -13
-10z"/>
<path d="M2025 1250 c3 -5 8 -10 11 -10 2 0 4 5 4 10 0 6 -5 10 -11 10 -5 0
-7 -4 -4 -10z"/>
<path d="M4145 1170 c-3 -6 1 -13 10 -16 19 -8 30 0 20 15 -8 14 -22 14 -30 1z"/>
<path d="M2055 1159 c-11 -17 1 -21 15 -4 8 9 8 15 2 15 -6 0 -14 -5 -17 -11z"/>
<path d="M4140 1025 c13 -14 26 -25 28 -25 3 0 -5 11 -18 25 -13 14 -26 25
-28 25 -3 0 5 -11 18 -25z"/>
<path d="M3810 936 c0 -8 5 -18 10 -21 6 -3 10 1 10 9 0 8 -4 18 -10 21 -5 3
-10 -1 -10 -9z"/>
<path d="M3855 939 c-4 -6 -4 -13 -1 -16 8 -8 36 5 36 17 0 13 -27 13 -35 -1z"/>
<path d="M2267 783 c-4 -3 -7 -11 -7 -17 0 -6 5 -5 12 2 6 6 9 14 7 17 -3 3
-9 2 -12 -2z"/>
<path d="M3820 754 c0 -8 5 -12 10 -9 6 3 10 10 10 16 0 5 -4 9 -10 9 -5 0
-10 -7 -10 -16z"/>
<path d="M2217 724 c-30 -30 -34 -52 -13 -60 38 -14 81 45 54 73 -13 12 -18
10 -41 -13z"/>
<path d="M3767 713 c-7 -40 -3 -53 17 -53 15 0 31 64 21 80 -13 22 -33 8 -38
-27z"/>
<path d="M3820 683 c0 -4 5 -15 10 -23 8 -13 10 -13 10 2 0 9 -4 20 -10 23 -5
3 -10 3 -10 -2z"/>
<path d="M3845 637 c-4 -9 1 -25 13 -37 18 -19 20 -20 26 -4 4 11 -1 25 -13
38 -18 17 -21 18 -26 3z"/>
<path d="M3910 590 c-12 -7 -12 -12 -2 -22 10 -10 15 -10 22 2 19 29 9 39 -20
20z"/>
</g>
</svg>
