<?xml version="1.0" standalone="no"?>
<!DOCTYPE svg PUBLIC "-//W3C//DTD SVG 20010904//EN"
 "http://www.w3.org/TR/2001/REC-SVG-20010904/DTD/svg10.dtd">
<svg version="1.0" xmlns="http://www.w3.org/2000/svg"
 width="611.000000pt" height="408.000000pt" viewBox="0 0 611.000000 408.000000"
 preserveAspectRatio="xMidYMid meet">

<g transform="translate(0.000000,408.000000) scale(0.100000,-0.100000)"
fill="#000000" stroke="none">
<path d="M635 3030 c-3 -5 1 -10 10 -10 9 0 13 5 10 10 -3 6 -8 10 -10 10 -2
0 -7 -4 -10 -10z"/>
<path d="M570 2970 c0 -6 12 -16 28 -22 21 -9 23 -12 10 -15 -10 -3 -25 3 -34
11 -8 9 -20 14 -24 11 -15 -9 2 -68 23 -85 14 -12 18 -23 13 -38 -7 -21 -29
-27 -78 -23 -12 2 -15 -4 -11 -21 3 -13 2 -20 -2 -16 -4 4 -17 3 -27 -3 -16
-9 -19 -17 -14 -41 5 -28 4 -30 -18 -26 -18 4 -30 -2 -45 -23 -24 -32 -26 -51
-10 -80 6 -12 7 -28 3 -37 -4 -9 -6 -23 -5 -31 1 -7 -3 -11 -11 -9 -17 6 -48
-83 -48 -137 0 -22 5 -58 10 -80 24 -99 23 -121 -9 -156 l-30 -33 5 -142 5
-142 -31 -48 c-16 -26 -30 -52 -30 -57 0 -6 -8 -16 -18 -23 -10 -8 -12 -13 -4
-14 7 0 12 -14 12 -34 0 -69 30 -188 60 -240 34 -61 163 -188 242 -239 73 -48
166 -59 228 -27 40 20 48 21 121 10 43 -6 95 -10 117 -9 31 2 54 -6 103 -35
35 -21 84 -45 109 -53 25 -8 52 -22 60 -29 21 -20 108 -78 149 -99 105 -54
243 -79 303 -56 13 5 43 14 68 21 75 20 104 33 122 51 14 15 15 18 3 23 -23 8
-19 46 5 46 14 0 18 -5 13 -16 -5 -13 -2 -15 15 -10 13 4 31 0 47 -10 29 -19
50 -9 50 24 0 14 8 16 38 14 29 -3 44 2 68 22 23 20 26 26 13 26 -10 0 -26 -8
-37 -18 -19 -16 -20 -16 -14 0 7 21 -18 24 -71 9 -19 -6 -32 -6 -32 -1 0 5 -7
7 -15 4 -20 -8 -19 3 1 23 13 14 17 14 25 2 8 -11 9 -10 7 6 -3 16 -10 19 -38
17 -19 -2 -41 -9 -48 -15 -10 -8 -16 -7 -23 4 -13 21 -11 28 9 28 37 0 58 7
71 24 7 10 10 21 7 24 -9 9 14 43 29 43 9 0 15 -10 16 -22 l0 -23 11 22 c8 16
21 23 42 24 17 1 38 3 46 4 8 1 33 3 55 4 38 1 39 2 18 16 -17 12 -31 13 -73
5 -75 -14 -77 -13 -44 19 21 21 32 26 41 19 7 -5 26 -7 43 -3 24 5 30 3 30
-10 0 -29 35 -13 38 18 3 23 6 26 23 17 13 -7 25 -7 38 0 11 5 26 8 33 5 23
-9 178 -11 178 -3 0 12 68 9 90 -4 27 -17 73 7 64 35 -5 16 -3 19 11 14 9 -4
24 -7 32 -7 12 0 13 -3 3 -15 -6 -8 -9 -19 -5 -25 8 -14 75 -13 75 1 0 7 7 8
18 4 24 -11 82 -16 81 -7 -3 19 2 32 12 32 6 0 8 -8 5 -17 -6 -17 -5 -17 8 0
7 9 21 17 30 17 9 0 16 6 16 13 0 9 3 8 9 -2 11 -17 121 -6 121 12 0 8 4 7 9
-2 9 -14 37 -19 124 -22 54 -1 65 4 49 24 -7 8 -9 17 -5 20 3 4 1 7 -5 7 -5 0
-12 -5 -14 -11 -4 -13 -78 -1 -78 12 0 5 12 6 26 3 16 -4 29 -2 34 6 5 8 18
10 39 5 17 -4 29 -11 26 -16 -3 -5 18 -8 47 -7 89 3 138 -2 138 -12 0 -5 -8
-10 -17 -11 -22 -1 114 -27 142 -27 13 0 8 5 -15 14 -34 13 -33 14 30 8 36 -4
75 -10 88 -15 13 -5 56 -9 97 -9 72 0 73 0 70 -25 -2 -25 18 -35 30 -15 12 19
35 10 46 -17 7 -20 6 -28 -3 -35 -8 -5 -9 -8 -2 -8 6 0 17 7 24 15 14 17 47
19 84 5 21 -7 26 -6 26 5 0 8 -7 15 -15 15 -8 0 -15 5 -15 10 0 6 15 10 33 9
17 0 26 -3 20 -6 -43 -17 19 -30 97 -20 19 3 45 5 58 6 13 1 20 5 17 11 -6 10
101 4 135 -7 25 -8 282 -33 340 -33 56 0 108 -11 170 -34 69 -27 116 -38 150
-34 l35 3 -33 18 c-37 20 -112 87 -112 100 0 5 10 5 23 2 22 -7 22 -7 -3 18
-14 13 -28 23 -32 21 -15 -9 -78 30 -78 48 0 10 -7 18 -15 18 -9 0 -12 -6 -9
-15 8 -20 -18 -20 -57 1 -17 8 -56 15 -90 15 -50 1 -59 3 -55 16 3 8 6 16 6
18 0 1 17 -1 37 -5 35 -8 36 -7 19 6 -11 8 -29 14 -40 14 -26 0 -86 22 -86 31
0 4 10 10 23 12 12 2 -1 5 -30 6 -28 0 -53 6 -55 12 -3 8 -10 8 -26 -2 -27
-17 -28 -26 -4 -31 9 -2 -4 -8 -30 -12 -26 -4 -50 -11 -52 -15 -5 -7 -52 -2
-176 18 -36 6 -128 18 -205 27 -77 9 -174 23 -215 31 -41 7 -82 14 -90 14 -26
1 -164 21 -180 26 -12 4 -12 7 4 19 11 8 28 12 38 8 10 -3 18 -2 18 3 0 5 20
10 45 11 25 1 45 -3 45 -8 0 -6 5 -10 12 -10 6 0 4 8 -7 20 -11 13 -26 18 -44
14 -14 -2 -42 -6 -62 -7 -20 -2 -45 -13 -57 -25 -18 -18 -32 -22 -80 -20 -31
1 -61 5 -67 8 -12 9 -110 18 -295 28 -132 8 -192 21 -156 35 9 4 26 1 36 -5
15 -10 22 -10 31 -1 9 9 7 11 -10 6 -12 -3 -21 -1 -21 6 0 12 38 15 65 5 13
-5 14 -8 3 -15 -10 -7 -9 -9 4 -9 9 0 19 4 22 8 3 5 62 8 131 7 69 -2 125 1
125 6 0 5 -19 9 -42 9 -24 0 -49 4 -57 9 -23 15 6 23 96 27 47 2 89 6 93 9 5
3 11 1 15 -5 3 -5 1 -10 -4 -10 -25 0 -9 -15 17 -16 15 -1 21 1 15 3 -20 7
-15 23 7 23 11 0 20 -4 20 -10 0 -5 7 -10 15 -10 18 0 20 -16 3 -24 -7 -3 28
-3 77 0 50 3 109 6 133 6 23 0 42 3 42 7 0 4 22 8 49 9 35 0 51 -4 55 -14 3
-9 -1 -14 -14 -14 -10 0 -31 -5 -47 -11 -22 -8 -24 -12 -13 -19 18 -12 77 -13
83 -2 3 4 118 7 255 7 247 0 299 10 113 22 -102 6 -105 6 -193 -1 -77 -7 -74
7 5 21 34 6 85 16 112 22 47 10 190 0 363 -25 66 -10 51 -27 -17 -19 -46 5
-66 3 -91 -10 -18 -9 -29 -20 -24 -24 26 -18 8 -27 -51 -23 -34 2 -70 0 -79
-5 -10 -6 9 -9 57 -9 108 0 298 -26 304 -41 3 -7 18 -13 35 -13 16 0 27 4 24
9 -3 5 21 11 54 15 46 5 58 10 53 21 -4 12 3 15 31 15 20 0 36 -4 36 -10 0 -5
-10 -10 -22 -10 -29 0 -14 -13 17 -15 14 0 25 4 25 10 1 13 50 49 50 37 0 -10
106 -9 117 1 3 4 17 4 30 1 13 -4 29 -2 36 4 16 12 44 7 66 -12 22 -20 42 -21
35 -1 -7 17 25 21 41 6 6 -5 30 -5 55 -1 25 4 40 8 34 9 -5 0 -19 8 -30 16
-18 13 -16 14 17 8 21 -3 46 0 59 7 49 26 173 49 220 40 25 -5 64 -9 88 -10
27 0 42 -5 42 -12 0 -10 3 -10 9 0 6 10 28 13 72 12 83 -3 84 -3 69 15 -11 13
-8 15 22 15 18 0 43 -7 55 -15 12 -8 24 -11 27 -6 3 4 17 6 30 4 21 -4 24 -2
19 16 -7 28 -21 35 -38 21 -16 -13 -35 -5 -35 15 0 7 -8 16 -17 19 -27 8 -173
29 -218 31 -22 1 -55 6 -74 10 -25 6 -32 5 -27 -3 5 -8 -1 -12 -15 -12 -17 0
-19 3 -10 14 9 11 5 15 -26 18 -47 6 -54 2 -19 -11 52 -20 16 -24 -44 -5 -13
5 -13 6 0 15 12 8 11 10 -5 8 -11 -1 -33 3 -49 10 -36 15 -97 5 -89 -15 3 -8
14 -14 24 -14 10 0 19 -4 19 -10 0 -13 -56 -13 -80 0 -13 7 -21 7 -25 0 -3 -5
-23 -10 -43 -10 -34 0 -35 -1 -16 -15 18 -15 17 -15 -16 -9 -19 5 -46 7 -60 5
-14 -1 -61 -3 -105 -3 -44 -1 -70 -3 -57 -5 27 -5 28 -11 5 -30 -16 -13 -15
-14 15 -10 26 3 32 0 32 -15 0 -23 -1 -23 -47 4 -35 20 -51 21 -228 21 -126 0
-197 -4 -212 -11 -12 -7 -36 -12 -53 -12 -27 0 -30 3 -25 20 6 17 2 20 -29 20
-20 0 -36 4 -36 9 0 6 27 9 60 7 37 -1 55 1 48 6 -8 6 5 7 32 4 25 -3 52 -6
60 -6 8 0 34 0 58 0 47 0 53 6 20 19 -22 9 -22 9 -3 16 11 3 34 13 50 20 29
13 30 14 5 15 -25 1 -24 1 5 15 34 15 35 15 -65 21 -91 5 -123 12 -115 24 3 5
42 9 87 9 50 -1 84 4 92 11 8 9 4 11 -21 5 -17 -3 -40 -2 -51 4 -13 7 -22 7
-30 -1 -9 -9 -15 -9 -23 -1 -8 8 -33 10 -74 6 -50 -5 -64 -2 -79 12 -17 17
-17 19 -1 28 12 6 20 5 25 -3 5 -8 10 -9 14 -1 4 6 26 16 49 22 23 6 50 20 60
30 21 23 52 26 43 4 -3 -9 0 -15 10 -15 8 0 12 5 9 10 -4 6 15 10 50 10 51 0
91 13 106 34 4 5 33 6 65 4 55 -5 114 8 114 24 0 4 -13 8 -30 8 -16 0 -30 3
-30 6 0 12 35 33 55 34 41 2 -24 20 -81 22 -30 1 -60 8 -66 15 -6 7 -20 13
-32 12 -21 0 -21 0 2 -9 34 -14 26 -22 -15 -15 -62 11 -70 14 -53 25 11 7 11
10 2 10 -7 0 -15 -7 -18 -15 -4 -9 -19 -15 -41 -15 -20 0 -32 -4 -28 -10 3 -6
0 -10 -9 -10 -8 0 -16 5 -18 11 -3 9 -10 9 -27 0 -23 -13 -81 -6 -81 9 0 5 8
11 18 13 9 3 -21 6 -68 8 -47 1 -94 3 -105 3 -11 1 -25 4 -32 9 -6 4 -23 3
-38 -3 -32 -12 -82 -13 -89 -1 -3 5 34 17 82 26 48 10 119 31 159 46 39 15 88
30 110 33 99 14 165 25 169 29 8 7 -139 -3 -183 -14 -23 -5 -54 -9 -70 -9 -27
1 -27 1 11 20 22 11 55 20 74 20 43 0 36 11 -7 12 -18 1 -34 4 -36 8 -6 10 24
22 35 15 5 -3 69 1 142 9 73 8 144 15 158 15 44 -1 208 29 232 42 15 9 71 13
169 13 141 1 145 1 95 14 -57 15 -211 47 -268 57 -26 4 -38 11 -38 22 0 13 -3
14 -12 5 -17 -17 -68 -15 -68 2 0 21 48 29 74 12 15 -9 37 -12 69 -9 44 5 57
23 16 23 -10 0 -19 4 -19 9 0 5 45 10 101 10 84 0 100 -2 95 -14 -4 -10 2 -15
17 -16 12 0 30 -2 40 -4 9 -2 17 1 17 7 0 5 9 6 20 3 12 -4 28 -1 36 6 12 9
36 9 114 0 55 -7 105 -9 110 -6 6 3 10 1 10 -6 0 -8 3 -9 13 0 8 6 18 7 22 3
5 -4 5 -2 2 5 -4 6 -1 14 5 16 9 4 8 6 -2 6 -9 1 -20 -3 -25 -8 -12 -11 -55 4
-55 19 0 7 -12 10 -28 9 -15 -2 -32 0 -39 4 -6 4 -33 12 -60 18 -26 5 -64 13
-83 18 -42 9 -61 5 -54 -12 3 -9 -7 -11 -36 -9 -27 3 -40 0 -40 -8 0 -9 -7 -7
-20 5 -23 21 -77 23 -154 6 -42 -9 -51 -9 -61 5 -9 12 -28 16 -80 15 -40 0
-72 -6 -76 -12 -5 -8 -14 -5 -29 9 -12 11 -28 18 -36 15 -8 -3 -14 0 -14 6 0
6 5 11 11 11 6 0 3 8 -7 18 -17 16 -15 17 36 26 39 7 55 6 58 -2 6 -18 50 -14
61 6 8 14 13 15 30 5 25 -15 31 -16 31 -4 0 10 -22 15 -104 26 -31 4 -45 10
-36 15 27 17 -26 28 -113 24 -86 -4 -88 -4 -97 21 -5 14 -12 25 -15 25 -4 0
-4 -4 0 -9 3 -6 -9 -12 -27 -15 -42 -6 -78 -4 -72 5 9 16 -163 25 -200 10 -18
-7 -18 -8 -3 -14 37 -14 14 -23 -48 -20 -42 3 -65 1 -65 -6 0 -7 22 -11 53
-11 57 0 88 -12 66 -25 -7 -5 -43 -9 -81 -10 -38 -2 -72 -5 -75 -9 -4 -3 -24
-6 -45 -6 -21 0 -47 -6 -58 -12 -15 -10 -22 -10 -31 -1 -9 9 -17 8 -33 -2 -14
-10 -26 -11 -36 -5 -12 8 -11 11 8 16 18 5 20 9 10 15 -8 6 5 9 35 9 34 0 53
6 67 20 24 24 25 30 5 30 -8 0 -19 -9 -25 -20 -9 -17 -21 -20 -86 -20 -42 0
-73 -4 -70 -9 16 -26 -257 -43 -291 -18 -10 7 -79 2 -226 -16 -19 -2 -31 2
-38 15 -8 14 -6 16 8 11 14 -5 13 -2 -4 16 -23 21 -83 30 -83 11 0 -5 5 -10
12 -10 8 0 8 -3 2 -9 -5 -6 -66 -5 -154 1 -80 6 -174 12 -210 13 -36 1 -78 7
-93 13 -38 16 -50 15 -43 -3 4 -12 -7 -15 -67 -17 -97 -2 -117 1 -141 18 -11
8 -30 14 -41 13 -17 -1 -16 -2 4 -8 40 -11 34 -26 -14 -39 -56 -15 -189 -16
-180 -2 3 6 17 10 30 10 13 0 27 4 30 10 4 6 -1 7 -11 3 -13 -5 -15 -2 -9 15
6 21 3 22 -47 21 -29 -1 -43 -4 -30 -6 46 -9 15 -30 -35 -24 -6 1 -14 -3 -18
-9 -8 -13 -155 -13 -155 0 0 6 -19 10 -42 9 -35 -1 -38 -2 -18 -8 23 -7 24 -8
5 -14 -30 -10 -249 -6 -233 4 10 7 9 9 -4 9 -10 0 -18 -5 -18 -10 0 -7 -6 -7
-19 0 -19 10 -106 2 -220 -20 -98 -19 -136 -11 -90 19 15 9 24 9 28 2 5 -7 24
-7 61 -1 30 6 83 13 118 17 57 5 63 8 60 27 -3 23 -41 34 -61 17 -31 -25 -261
-49 -274 -28 -6 9 46 29 58 21 6 -3 15 -2 22 3 7 5 32 15 57 23 25 7 49 16 53
20 4 4 63 5 130 2 97 -3 130 -1 160 12 46 19 41 41 -7 32 -17 -4 -85 -9 -151
-12 -69 -2 -144 -12 -175 -21 -30 -9 -59 -16 -63 -15 -4 1 -58 -3 -120 -9 -62
-6 -130 -13 -151 -15 -22 -2 -44 -8 -50 -14 -11 -11 -50 -14 -43 -2 3 4 -20 6
-51 5 -38 -2 -50 0 -37 6 15 6 5 9 -38 13 -64 5 -79 14 -71 43 6 23 83 75 110
75 11 0 26 5 34 10 12 8 9 10 -10 6 -157 -30 -241 -38 -285 -25 -25 7 -45 17
-45 22 0 5 -37 7 -82 6 -46 -2 -88 0 -95 4 -6 4 -14 3 -18 -3 -4 -7 -12 -7
-25 0 -24 13 -30 13 -30 0z m115 -62 c3 -3 -1 -8 -10 -11 -8 -4 -15 -2 -15 4
0 6 -4 7 -10 4 -5 -3 -10 -1 -10 4 0 11 34 10 45 -1z m145 -7 c0 -17 -12 -41
-21 -41 -10 0 -12 33 -2 43 9 10 23 9 23 -2z m3723 -88 c19 -11 -6 -18 -57
-15 -55 4 -73 16 -38 25 18 5 81 -1 95 -10z m-2739 -12 c3 -5 -3 -11 -14 -14
-20 -5 -26 3 -13 16 9 10 21 9 27 -2z m2701 -40 c-8 -14 -25 -14 -25 0 0 5 5
7 10 4 6 -3 10 -1 10 6 0 7 3 10 6 6 3 -3 3 -10 -1 -16z m393 -2 c-8 -4 -28
-6 -44 -4 -41 5 -41 6 -20 14 26 10 84 1 64 -10z m-1465 -35 c14 -14 -3 -19
-47 -16 -25 2 -43 8 -40 13 6 10 77 12 87 3z m1294 0 c-3 -3 -12 -4 -19 -1 -8
3 -5 6 6 6 11 1 17 -2 13 -5z m270 -90 c-3 -3 -12 -4 -19 -1 -8 3 -5 6 6 6 11
1 17 -2 13 -5z m233 -14 c0 -5 -4 -10 -10 -10 -5 0 -10 5 -10 10 0 6 5 10 10
10 6 0 10 -4 10 -10z m295 -10 c3 -5 -1 -10 -10 -10 -9 0 -13 5 -10 10 3 6 8
10 10 10 2 0 7 -4 10 -10z m-698 -6 c-3 -3 -12 -4 -19 -1 -8 3 -5 6 6 6 11 1
17 -2 13 -5z m93 2 c0 -2 -7 -6 -15 -10 -8 -3 -15 -1 -15 4 0 6 7 10 15 10 8
0 15 -2 15 -4z m191 -16 c-27 -23 -42 -25 -59 -8 -8 8 -15 8 -27 -2 -12 -10
-19 -10 -27 -2 -7 7 -20 12 -31 12 -10 0 -16 4 -13 9 3 5 45 9 93 10 l87 2
-23 -21z m289 10 c0 -5 -2 -10 -4 -10 -3 0 -8 5 -11 10 -3 6 -1 10 4 10 6 0
11 -4 11 -10z m-485 -100 c-3 -5 -10 -10 -16 -10 -5 0 -9 5 -9 10 0 6 7 10 16
10 8 0 12 -4 9 -10z m115 0 c0 -5 -4 -10 -10 -10 -5 0 -10 5 -10 10 0 6 5 10
10 10 6 0 10 -4 10 -10z m58 -7 c-10 -2 -26 -2 -35 0 -10 3 -2 5 17 5 19 0 27
-2 18 -5z m-558 -144 c0 -5 -11 -10 -25 -10 -14 -1 -30 -2 -37 -3 -22 -2 -19
23 4 26 30 5 58 -2 58 -13z m-406 -10 c-31 -12 -39 -10 -19 5 11 8 24 12 29 8
5 -3 1 -9 -10 -13z m176 9 c0 -5 -11 -8 -24 -8 -14 0 -27 -4 -30 -8 -2 -4 -18
-9 -35 -10 -29 -2 -47 10 -37 26 6 10 126 10 126 0z m80 2 c0 -5 -13 -10 -30
-10 -16 0 -30 5 -30 10 0 6 14 10 30 10 17 0 30 -4 30 -10z m40 0 c0 -5 -4
-10 -10 -10 -5 0 -10 5 -10 10 0 6 5 10 10 10 6 0 10 -4 10 -10z m-380 -10 c0
-5 -10 -10 -22 -10 -19 0 -20 2 -8 10 19 13 30 13 30 0z m405 -10 c3 -5 -1
-10 -10 -10 -9 0 -13 5 -10 10 3 6 8 10 10 10 2 0 7 -4 10 -10z m-586 -19 c10
-6 10 -10 1 -16 -7 -4 -19 0 -28 9 -14 13 -14 16 -2 16 8 0 21 -4 29 -9z m463
-6 c0 -5 -5 -11 -11 -13 -6 -2 -11 4 -11 13 0 9 5 15 11 13 6 -2 11 -8 11 -13z
m138 -5 c0 -5 -7 -10 -15 -10 -8 0 -15 5 -15 10 0 6 7 10 15 10 8 0 15 -4 15
-10z m-500 -80 c0 -5 -4 -10 -10 -10 -5 0 -10 5 -10 10 0 6 5 10 10 10 6 0 10
-4 10 -10z m130 -10 c0 -5 -4 -10 -10 -10 -5 0 -10 5 -10 10 0 6 5 10 10 10 6
0 10 -4 10 -10z m760 -90 c12 -8 11 -10 -7 -10 -13 0 -23 5 -23 10 0 13 11 13
30 0z m67 -6 c-3 -3 -12 -4 -19 -1 -8 3 -5 6 6 6 11 1 17 -2 13 -5z m-922 -74
c4 -6 -7 -10 -24 -10 -17 0 -31 5 -31 10 0 6 11 10 24 10 14 0 28 -4 31 -10z
m-421 -59 c8 -12 -20 -22 -39 -15 -19 8 -9 24 15 24 10 0 21 -4 24 -9z m161
-11 c3 -5 -1 -10 -9 -10 -9 0 -16 5 -16 10 0 6 4 10 9 10 6 0 13 -4 16 -10z
m-65 -9 c0 -11 -26 -22 -34 -14 -12 12 -5 23 14 23 11 0 20 -4 20 -9z m140 5
c0 -3 -4 -8 -10 -11 -5 -3 -10 -1 -10 4 0 6 5 11 10 11 6 0 10 -2 10 -4z m370
-42 c0 -12 -4 -12 -20 -4 -11 6 -18 15 -15 20 8 13 35 0 35 -16z m50 6 c0 -23
-25 -27 -33 -6 -5 13 5 23 26 25 4 1 7 -8 7 -19z m227 3 c3 -8 -6 -9 -32 -3
-51 12 -57 22 -11 18 22 -2 41 -8 43 -15z m-1237 -11 c0 -10 -76 -9 -86 1 -4
4 14 7 39 7 26 0 47 -4 47 -8z m68 -4 c-4 -12 -48 -19 -48 -8 0 11 8 16 30 17
12 1 20 -3 18 -9z m1046 -33 l-1 -40 -79 -2 c-53 -1 -71 1 -54 7 18 6 20 8 7
9 -24 1 -17 23 12 37 13 7 28 17 34 23 6 6 27 10 47 8 34 -2 35 -4 34 -42z
m-199 16 c-3 -5 -1 -12 5 -16 12 -7 4 -25 -11 -25 -5 0 -9 11 -9 25 0 14 5 25
11 25 5 0 8 -4 4 -9z m276 -1 c5 0 9 -4 9 -9 0 -15 -41 -24 -52 -13 -14 14 0
35 19 28 8 -3 19 -6 24 -6z m-454 -16 c-3 -3 -12 -4 -19 -1 -8 3 -5 6 6 6 11
1 17 -2 13 -5z m103 -10 c0 -2 -9 -4 -21 -4 -11 0 -18 4 -14 10 5 8 35 3 35
-6z m496 4 c8 -12 -24 -40 -38 -32 -10 6 9 44 22 44 5 0 12 -5 16 -12z m-451
-8 c3 -6 -1 -7 -9 -4 -18 7 -21 14 -7 14 6 0 13 -4 16 -10z m395 1 c0 -15 -39
-19 -51 -5 -9 11 -6 14 20 14 17 0 31 -4 31 -9z m-480 -21 c0 -5 -2 -10 -4
-10 -3 0 -8 5 -11 10 -3 6 -1 10 4 10 6 0 11 -4 11 -10z m-250 -30 c0 -5 -2
-10 -4 -10 -3 0 -8 5 -11 10 -3 6 -1 10 4 10 6 0 11 -4 11 -10z m875 1 c-6 -4
-27 -11 -47 -14 -29 -4 -36 -3 -31 9 3 9 20 14 46 14 24 0 37 -4 32 -9z m-550
-11 c8 -13 -5 -13 -25 0 -13 8 -13 10 2 10 9 0 20 -4 23 -10z m131 -28 c-4 -3
-12 0 -19 7 -9 9 -9 14 3 21 11 7 16 5 18 -6 2 -9 1 -18 -2 -22z m254 28 c0
-5 -15 -10 -34 -10 -19 0 -38 5 -41 10 -4 6 10 10 34 10 23 0 41 -4 41 -10z
m70 0 c0 -5 -9 -10 -20 -10 -11 0 -20 5 -20 10 0 6 9 10 20 10 11 0 20 -4 20
-10z m890 0 c0 -5 -2 -10 -4 -10 -3 0 -8 5 -11 10 -3 6 -1 10 4 10 6 0 11 -4
11 -10z m-1260 -12 c0 -11 -32 -10 -50 2 -11 8 -7 10 18 8 17 -1 32 -6 32 -10z
m196 -3 c18 -13 16 -14 -23 -15 -32 0 -43 4 -43 15 0 19 40 20 66 0z m-306
-13 c0 -10 -22 -32 -32 -32 -5 0 -3 9 4 20 13 20 28 27 28 12z m-540 -42 c0
-5 -6 -10 -14 -10 -8 0 -18 5 -21 10 -3 6 3 10 14 10 12 0 21 -4 21 -10z m88
-9 c3 -8 -1 -12 -9 -9 -7 2 -15 10 -17 17 -3 8 1 12 9 9 7 -2 15 -10 17 -17z
m37 9 c3 -5 1 -10 -4 -10 -6 0 -11 5 -11 10 0 6 2 10 4 10 3 0 8 -4 11 -10z
m115 1 c0 -5 -7 -11 -15 -15 -15 -5 -20 5 -8 17 9 10 23 9 23 -2z m1420 -1 c0
-5 -2 -10 -4 -10 -3 0 -8 5 -11 10 -3 6 -1 10 4 10 6 0 11 -4 11 -10z m-2150
-51 c0 -11 -40 -18 -45 -8 -3 4 -11 6 -18 4 -7 -3 -25 -1 -42 4 -29 8 -28 9
23 16 28 4 52 12 52 18 0 11 29 -23 30 -34z m2107 25 c-3 -3 -12 -4 -19 -1 -8
3 -5 6 6 6 11 1 17 -2 13 -5z m-2277 -18 c0 -2 -9 -6 -20 -9 -11 -3 -20 -1
-20 4 0 5 9 9 20 9 11 0 20 -2 20 -4z m240 -4 c0 -5 -7 -9 -15 -9 -8 0 -15 4
-15 9 0 4 7 8 15 8 8 0 15 -4 15 -8z m1855 -18 c-21 -16 -71 -12 -89 6 -7 7
11 10 50 10 55 -1 58 -2 39 -16z m158 -1 c4 -3 2 -12 -4 -20 -13 -15 -43 -18
-34 -3 3 6 1 10 -4 10 -6 0 -11 5 -11 10 0 11 43 14 53 3z m102 -24 c5 -5 -11
-9 -43 -9 -49 0 -62 7 -45 24 9 9 74 -2 88 -15z m-471 0 c-3 -6 -19 -9 -33 -7
-15 2 -33 -2 -40 -10 -15 -16 -103 -13 -108 5 -5 13 16 17 115 20 50 2 71 -1
66 -8z m151 1 c3 -5 -1 -10 -9 -10 -9 0 -16 5 -16 10 0 6 4 10 9 10 6 0 13 -4
16 -10z m-2075 -11 c0 -6 10 -9 23 -6 12 3 31 1 42 -3 14 -6 -1 -9 -47 -9 -68
-1 -101 6 -93 18 7 12 75 11 75 0z m-130 -18 c0 -3 -24 -4 -52 -2 -40 3 -47 6
-28 11 28 7 80 1 80 -9z m2177 -7 c-3 -3 -12 -4 -19 -1 -8 3 -5 6 6 6 11 1 17
-2 13 -5z m-322 -25 c-5 -7 3 -10 21 -8 55 4 95 -1 89 -11 -10 -16 -124 -12
-141 4 -20 21 -18 26 12 26 15 0 23 -4 19 -11z m210 -19 c-3 -5 -22 -10 -41
-10 -19 0 -34 5 -34 10 0 6 18 10 41 10 24 0 38 -4 34 -10z m-235 -101 c0 -5
-4 -9 -10 -9 -5 0 -10 7 -10 16 0 8 5 12 10 9 6 -3 10 -10 10 -16z m30 11 c0
-5 -2 -10 -4 -10 -3 0 -8 5 -11 10 -3 6 -1 10 4 10 6 0 11 -4 11 -10z m20 -40
c0 -5 -4 -10 -10 -10 -5 0 -10 5 -10 10 0 6 5 10 10 10 6 0 10 -4 10 -10z m40
-4 c0 -16 -18 -31 -27 -22 -8 8 5 36 17 36 5 0 10 -6 10 -14z m-1520 -36 c0
-13 -20 -13 -40 0 -12 8 -9 10 13 10 15 0 27 -4 27 -10z m-1260 -8 c0 -14 -11
-21 -26 -15 -21 8 -17 23 6 23 11 0 20 -4 20 -8z m850 -12 c0 -5 -9 -10 -19
-10 -11 0 -23 5 -26 10 -4 6 5 10 19 10 14 0 26 -4 26 -10z m17 -12 c-3 -8 -6
-5 -6 6 -1 11 2 17 5 13 3 -3 4 -12 1 -19z m93 2 c0 -5 -2 -10 -4 -10 -3 0 -8
5 -11 10 -3 6 -1 10 4 10 6 0 11 -4 11 -10z m100 -11 c0 -5 -7 -9 -15 -9 -8 0
-15 -7 -15 -15 0 -17 -16 -20 -25 -5 -3 5 -12 7 -20 3 -8 -3 -15 0 -15 7 0 6
8 10 18 8 9 -2 26 4 36 14 19 17 36 16 36 -3z m-1106 -2 c9 10 56 13 56 4 0
-4 -9 -16 -20 -26 -12 -10 -18 -25 -15 -33 3 -8 -3 -16 -15 -19 -11 -3 -20
-10 -20 -15 0 -5 -13 -7 -30 -3 -19 4 -30 3 -30 -4 0 -6 -7 -11 -15 -11 -8 0
-15 5 -15 10 0 6 -7 10 -15 10 -9 0 -15 9 -15 24 0 21 5 25 38 28 24 2 37 8
38 18 1 8 2 18 3 22 0 4 12 3 25 -2 13 -5 27 -6 30 -3z m1211 3 c3 -5 1 -10
-4 -10 -6 0 -11 5 -11 10 0 6 2 10 4 10 3 0 8 -4 11 -10z m-545 -20 c0 -5 -4
-10 -10 -10 -5 0 -10 5 -10 10 0 6 5 10 10 10 6 0 10 -4 10 -10z m305 -9 c3
-5 1 -12 -5 -16 -5 -3 -10 1 -10 9 0 18 6 21 15 7z m1685 5 c0 -11 -19 -15
-25 -6 -3 5 1 10 9 10 9 0 16 -2 16 -4z m-2519 -21 c22 5 29 3 29 -8 0 -17
-47 -29 -56 -15 -3 5 -12 4 -20 -3 -10 -8 -14 -8 -14 -1 0 6 -7 9 -15 6 -9 -4
-15 0 -15 9 0 20 20 27 43 15 10 -5 31 -6 48 -3z m2929 5 c0 -5 -6 -10 -14
-10 -8 0 -18 5 -21 10 -3 6 3 10 14 10 12 0 21 -4 21 -10z m-3273 -25 c-7 -16
-37 -21 -37 -5 0 10 32 31 39 25 2 -2 1 -11 -2 -20z m63 17 c0 -14 -11 -21
-26 -15 -21 8 -17 23 6 23 11 0 20 -4 20 -8z m3000 -22 c0 -5 -4 -10 -10 -10
-5 0 -10 5 -10 10 0 6 5 10 10 10 6 0 10 -4 10 -10z m-3040 -19 c0 -6 -4 -13
-10 -16 -5 -3 -10 1 -10 9 0 9 5 16 10 16 6 0 10 -4 10 -9z m-110 -31 c0 -5
-7 -10 -16 -10 -8 0 -12 5 -9 10 3 6 10 10 16 10 5 0 9 -4 9 -10z m3435 -10
c3 -5 1 -10 -4 -10 -6 0 -11 5 -11 10 0 6 2 10 4 10 3 0 8 -4 11 -10z m-3335
-20 c0 -5 -4 -10 -10 -10 -5 0 -10 5 -10 10 0 6 5 10 10 10 6 0 10 -4 10 -10z
m390 0 c0 -5 -5 -10 -11 -10 -5 0 -7 5 -4 10 3 6 8 10 11 10 2 0 4 -4 4 -10z
m-695 -40 c0 -9 -12 -15 -34 -17 -34 -3 -34 -3 -16 17 21 23 50 23 50 0z m357
-2 c-9 -9 -15 -9 -24 0 -9 9 -7 12 12 12 19 0 21 -3 12 -12z m113 -16 c-8 -8
-25 10 -19 20 4 6 9 5 15 -3 4 -7 6 -15 4 -17z m190 19 c3 -5 1 -12 -5 -16 -5
-3 -10 1 -10 9 0 18 6 21 15 7z m-735 -22 c0 -5 -9 -9 -20 -9 -19 0 -26 11
-14 23 8 8 34 -3 34 -14z m359 -5 c-14 -18 -24 -11 -15 11 3 9 11 13 16 10 8
-5 7 -11 -1 -21z m261 5 c0 -5 -12 -9 -27 -9 -27 1 -27 1 -9 15 19 14 36 12
36 -6z m17 -1 c-3 -8 -6 -5 -6 6 -1 11 2 17 5 13 3 -3 4 -12 1 -19z m33 -18
c0 -5 -2 -10 -4 -10 -3 0 -8 5 -11 10 -3 6 -1 10 4 10 6 0 11 -4 11 -10z
m-670 -4 c0 -11 -19 -15 -25 -6 -3 5 1 10 9 10 9 0 16 -2 16 -4z m140 -6 c0
-5 -7 -10 -15 -10 -8 0 -15 5 -15 10 0 6 7 10 15 10 8 0 15 -4 15 -10z m487
-9 c2 -21 -23 -36 -33 -20 -6 10 13 39 25 39 4 0 7 -9 8 -19z m-541 -2 c11
-19 -13 -34 -31 -19 -13 11 -13 15 -3 21 18 12 26 11 34 -2z m321 -36 c-9 -9
-19 -14 -23 -11 -10 10 6 28 24 28 15 0 15 -1 -1 -17z m88 -3 c-3 -5 -10 -10
-16 -10 -5 0 -9 5 -9 10 0 6 7 10 16 10 8 0 12 -4 9 -10z m365 -30 c0 -5 -5
-10 -11 -10 -5 0 -7 5 -4 10 3 6 8 10 11 10 2 0 4 -4 4 -10z m-90 -9 c0 -6 -4
-12 -9 -15 -13 -8 -42 4 -35 15 7 12 44 12 44 0z m-529 -54 c-1 -12 -15 -9
-19 4 -3 6 1 10 8 8 6 -3 11 -8 11 -12z"/>
<path d="M4276 1884 c-4 -10 -1 -14 6 -12 15 5 23 28 10 28 -5 0 -13 -7 -16
-16z"/>
<path d="M1245 2920 c-13 -6 -15 -9 -5 -9 8 0 22 4 30 9 18 12 2 12 -25 0z"/>
<path d="M2860 2900 c0 -5 7 -10 16 -10 8 0 12 5 9 10 -3 6 -10 10 -16 10 -5
0 -9 -4 -9 -10z"/>
<path d="M4250 2870 c19 -13 30 -13 30 0 0 6 -10 10 -22 10 -19 0 -20 -2 -8
-10z"/>
<path d="M2880 2860 c8 -5 24 -9 35 -9 l20 0 -20 9 c-11 5 -27 9 -35 9 -13 1
-13 0 0 -9z"/>
<path d="M548 2848 c9 -9 15 -9 24 0 9 9 7 12 -12 12 -19 0 -21 -3 -12 -12z"/>
<path d="M2653 2843 c9 -2 23 -2 30 0 6 3 -1 5 -18 5 -16 0 -22 -2 -12 -5z"/>
<path d="M3504 2835 c-15 -11 -14 -13 7 -19 23 -7 23 -8 4 -16 -18 -8 -18 -9
5 -9 14 0 34 6 44 14 13 10 47 16 95 17 l76 2 -67 3 c-38 2 -68 8 -68 12 0 13
-78 10 -96 -4z"/>
<path d="M4155 2841 c-62 -5 -70 -8 -68 -26 1 -11 0 -14 -3 -7 -3 6 -15 12
-25 12 -11 0 -18 -4 -15 -9 4 -5 0 -12 -6 -14 -7 -3 6 -6 29 -6 25 -1 43 4 46
12 2 6 19 13 38 13 19 1 72 3 119 4 l85 3 -60 13 c-33 7 -62 13 -65 12 -3 -1
-36 -4 -75 -7z"/>
<path d="M3760 2830 c-11 -7 -4 -10 27 -10 23 0 50 -3 60 -6 14 -4 15 -4 3 4
-25 16 -74 23 -90 12z"/>
<path d="M1855 2820 c-3 -5 13 -7 42 -3 63 7 68 13 10 13 -25 0 -48 -4 -52
-10z"/>
<path d="M2357 2814 c-8 -8 1 -24 12 -24 4 0 8 7 8 15 0 16 -9 20 -20 9z"/>
<path d="M2660 2813 c0 -5 14 -8 30 -9 17 -1 30 3 30 7 0 5 -13 9 -30 9 -16 0
-30 -3 -30 -7z"/>
<path d="M2515 2799 c-11 -17 1 -21 15 -4 8 9 8 15 2 15 -6 0 -14 -5 -17 -11z"/>
<path d="M3458 2793 c7 -3 16 -2 19 1 4 3 -2 6 -13 5 -11 0 -14 -3 -6 -6z"/>
<path d="M2550 2786 c0 -10 28 -13 41 -5 10 6 7 9 -13 9 -16 0 -28 -2 -28 -4z"/>
<path d="M3550 2778 c0 -5 -13 -8 -30 -8 -21 0 -30 -5 -30 -16 0 -9 5 -12 11
-8 7 4 41 6 78 6 36 0 60 2 54 4 -7 3 -13 12 -13 20 0 10 -10 13 -35 11 -19
-1 -35 -5 -35 -9z"/>
<path d="M3193 2773 c9 -2 25 -2 35 0 9 3 1 5 -18 5 -19 0 -27 -2 -17 -5z"/>
<path d="M4228 2773 c12 -2 32 -2 45 0 12 2 2 4 -23 4 -25 0 -35 -2 -22 -4z"/>
<path d="M3738 2753 c6 -2 18 -2 25 0 6 3 1 5 -13 5 -14 0 -19 -2 -12 -5z"/>
<path d="M4890 2700 c8 -5 20 -10 25 -10 6 0 3 5 -5 10 -8 5 -19 10 -25 10 -5
0 -3 -5 5 -10z"/>
<path d="M5295 2660 c3 -5 22 -10 41 -10 21 0 33 4 29 10 -3 6 -22 10 -41 10
-21 0 -33 -4 -29 -10z"/>
<path d="M4603 2193 c9 -2 23 -2 30 0 6 3 -1 5 -18 5 -16 0 -22 -2 -12 -5z"/>
<path d="M5075 2130 c3 -5 14 -10 23 -10 15 0 15 2 2 10 -20 13 -33 13 -25 0z"/>
<path d="M5053 2067 c2 -7 23 -13 48 -15 53 -4 42 13 -14 21 -27 4 -37 3 -34
-6z"/>
<path d="M5195 2060 c3 -5 8 -10 11 -10 2 0 4 5 4 10 0 6 -5 10 -11 10 -5 0
-7 -4 -4 -10z"/>
<path d="M4803 1893 c9 -2 23 -2 30 0 6 3 -1 5 -18 5 -16 0 -22 -2 -12 -5z"/>
<path d="M5168 1833 c6 -2 18 -2 25 0 6 3 1 5 -13 5 -14 0 -19 -2 -12 -5z"/>
<path d="M5228 1823 c7 -3 16 -2 19 1 4 3 -2 6 -13 5 -11 0 -14 -3 -6 -6z"/>
<path d="M4823 1743 c26 -2 67 -2 90 0 23 2 2 3 -48 3 -49 0 -68 -1 -42 -3z"/>
<path d="M3448 1653 c6 -2 18 -2 25 0 6 3 1 5 -13 5 -14 0 -19 -2 -12 -5z"/>
<path d="M3390 1599 c0 -4 27 -7 60 -7 33 0 60 4 60 9 0 4 -27 7 -60 7 -33 0
-60 -4 -60 -9z"/>
<path d="M3918 1603 c6 -2 18 -2 25 0 6 3 1 5 -13 5 -14 0 -19 -2 -12 -5z"/>
<path d="M3853 1593 c9 -2 23 -2 30 0 6 3 -1 5 -18 5 -16 0 -22 -2 -12 -5z"/>
<path d="M3985 1589 c-28 -4 -9 -7 59 -8 55 0 97 1 95 3 -8 8 -115 12 -154 5z"/>
<path d="M4169 1583 c-13 -15 -11 -16 11 -10 14 4 32 7 40 8 10 0 8 3 -5 9
-29 12 -31 12 -46 -7z"/>
<path d="M5118 1563 c7 -3 16 -2 19 1 4 3 -2 6 -13 5 -11 0 -14 -3 -6 -6z"/>
<path d="M3960 1550 c-9 -6 -10 -10 -3 -10 6 0 15 5 18 10 8 12 4 12 -15 0z"/>
<path d="M4900 1552 c0 -5 14 -7 30 -4 17 2 30 6 30 8 0 2 -13 4 -30 4 -16 0
-30 -4 -30 -8z"/>
<path d="M4308 1533 c6 -2 18 -2 25 0 6 3 1 5 -13 5 -14 0 -19 -2 -12 -5z"/>
<path d="M4405 1511 c-3 -5 -21 -7 -40 -4 -29 5 -35 3 -35 -12 0 -14 3 -15 14
-6 10 8 26 9 57 2 54 -12 89 2 46 18 -34 13 -34 13 -42 2z"/>
<path d="M4815 1400 c3 -5 8 -10 11 -10 2 0 4 5 4 10 0 6 -5 10 -11 10 -5 0
-7 -4 -4 -10z"/>
<path d="M3398 1363 c7 -3 16 -2 19 1 4 3 -2 6 -13 5 -11 0 -14 -3 -6 -6z"/>
<path d="M4928 1363 c7 -3 16 -2 19 1 4 3 -2 6 -13 5 -11 0 -14 -3 -6 -6z"/>
<path d="M4970 1356 c0 -2 7 -6 15 -10 8 -3 15 -1 15 4 0 6 -7 10 -15 10 -8 0
-15 -2 -15 -4z"/>
<path d="M3360 1340 c0 -5 7 -7 15 -4 9 4 15 1 15 -7 0 -9 -12 -14 -29 -15
-30 -1 -68 -28 -53 -38 19 -12 128 -24 138 -15 6 5 14 6 18 2 15 -16 50 -12
68 7 16 17 17 23 6 33 -14 14 -91 11 -96 -4 -4 -11 -32 -12 -31 -1 3 21 -16
52 -32 52 -11 0 -19 -4 -19 -10z"/>
<path d="M5030 1343 c1 -14 30 -47 30 -35 0 18 21 15 44 -7 15 -13 27 -16 41
-11 l20 8 -20 8 c-11 4 -23 11 -26 16 -3 5 -18 10 -32 12 -15 1 -30 6 -34 9
-9 9 -23 9 -23 0z"/>
<path d="M3683 1323 c9 -2 23 -2 30 0 6 3 -1 5 -18 5 -16 0 -22 -2 -12 -5z"/>
<path d="M3130 1310 c-12 -8 -10 -10 8 -10 13 0 20 4 17 10 -7 12 -6 12 -25 0z"/>
<path d="M3733 1305 c0 -17 6 -18 25 -6 11 7 10 10 -3 15 -22 8 -22 8 -22 -9z"/>
<path d="M3163 1295 c-6 -7 -9 -15 -6 -18 3 -3 -4 -3 -16 0 -12 3 -21 1 -21
-5 0 -5 16 -12 35 -14 19 -2 35 -1 35 3 0 4 3 14 6 22 7 19 -18 28 -33 12z"/>
<path d="M3603 1293 c-23 -2 -44 -10 -47 -18 -7 -20 22 -27 32 -8 8 13 19 15
58 9 44 -6 46 -5 29 9 -11 8 -22 14 -25 13 -3 -1 -24 -3 -47 -5z"/>
<path d="M3820 1290 c0 -12 8 -12 35 0 18 8 17 9 -7 9 -16 1 -28 -3 -28 -9z"/>
<path d="M3230 1279 c0 -5 5 -7 10 -4 6 3 10 8 10 11 0 2 -4 4 -10 4 -5 0 -10
-5 -10 -11z"/>
<path d="M3810 1255 c-8 -9 -9 -19 -4 -25 12 -11 34 14 25 29 -6 9 -11 8 -21
-4z"/>
<path d="M4308 1263 c6 -2 18 -2 25 0 6 3 1 5 -13 5 -14 0 -19 -2 -12 -5z"/>
<path d="M2295 1250 c-8 -13 5 -13 25 0 13 8 13 10 -2 10 -9 0 -20 -4 -23 -10z"/>
<path d="M2340 1251 c0 -5 9 -7 20 -4 11 3 20 7 20 9 0 2 -9 4 -20 4 -11 0
-20 -4 -20 -9z"/>
<path d="M3857 1242 c-25 -27 -21 -31 21 -21 20 4 38 8 40 9 1 0 7 0 12 0 6 0
10 7 10 15 0 18 -12 19 -27 4 -8 -8 -13 -8 -17 0 -10 16 -21 14 -39 -7z"/>
<path d="M3635 1220 c4 -6 11 -8 16 -5 14 9 11 15 -7 15 -8 0 -12 -5 -9 -10z"/>
<path d="M3570 1210 c0 -5 4 -10 9 -10 6 0 13 5 16 10 3 6 -1 10 -9 10 -9 0
-16 -4 -16 -10z"/>
<path d="M3305 1200 c7 -12 62 -14 69 -2 3 5 -13 9 -35 11 -26 1 -38 -2 -34
-9z"/>
<path d="M3420 1190 c0 -5 5 -10 11 -10 5 0 7 5 4 10 -3 6 -8 10 -11 10 -2 0
-4 -4 -4 -10z"/>
<path d="M2070 1160 c0 -5 9 -10 21 -10 11 0 17 5 14 10 -3 6 -13 10 -21 10
-8 0 -14 -4 -14 -10z"/>
</g>
</svg>
