<?xml version="1.0" standalone="no"?>
<!DOCTYPE svg PUBLIC "-//W3C//DTD SVG 20010904//EN"
 "http://www.w3.org/TR/2001/REC-SVG-20010904/DTD/svg10.dtd">
<svg version="1.0" xmlns="http://www.w3.org/2000/svg"
 width="898.000000pt" height="278.000000pt" viewBox="0 0 898.000000 278.000000"
 preserveAspectRatio="xMidYMid meet">

<g transform="translate(0.000000,278.000000) scale(0.100000,-0.100000)"
fill="#000000" stroke="none">
<path d="M5530 2730 c0 -5 5 -10 10 -10 6 0 10 5 10 10 0 6 -4 10 -10 10 -5 0
-10 -4 -10 -10z"/>
<path d="M5883 2563 c-27 -5 -39 -20 -47 -59 -12 -54 46 -102 105 -87 28 8 50
55 43 92 -10 48 -42 65 -101 54z"/>
<path d="M3754 2445 c-8 -19 4 -65 16 -65 15 0 32 39 25 60 -7 24 -33 26 -41
5z"/>
<path d="M1551 2304 c0 -11 3 -14 6 -6 3 7 2 16 -1 19 -3 4 -6 -2 -5 -13z"/>
<path d="M1145 2290 c3 -5 8 -10 11 -10 2 0 4 5 4 10 0 6 -5 10 -11 10 -5 0
-7 -4 -4 -10z"/>
<path d="M7112 2113 c-113 -114 -206 -193 -225 -193 -8 0 -27 -10 -42 -22 -16
-12 -42 -29 -59 -38 -16 -8 -44 -36 -60 -62 -27 -41 -35 -47 -63 -46 -17 1
-37 -3 -45 -8 -28 -22 -110 -3 -106 25 2 11 -6 17 -24 19 -16 2 -28 9 -28 16
0 8 -12 16 -26 19 -18 3 -24 1 -20 -9 3 -7 1 -16 -5 -20 -6 -4 -5 -11 3 -21
10 -12 9 -17 -5 -28 -21 -15 -64 -8 -71 11 -3 8 2 18 11 21 15 6 14 7 -3 13
-10 4 -19 13 -19 21 0 11 -20 14 -90 16 -50 0 -96 -3 -102 -9 -9 -7 -22 -7
-40 0 -40 16 -165 12 -182 -6 -13 -12 -16 -12 -26 2 -16 21 -95 23 -95 2 0
-19 -18 -23 -108 -25 -88 -2 -112 4 -112 29 0 23 -36 36 -55 20 -8 -7 -26 -9
-40 -6 -14 4 -25 2 -25 -3 0 -5 20 -13 45 -17 25 -3 45 -10 45 -15 0 -13 -22
-22 -29 -13 -3 5 -26 9 -51 9 -37 0 -45 3 -42 18 2 12 -4 17 -20 18 -66 5 -88
3 -87 -6 0 -5 11 -9 24 -7 18 2 25 -1 25 -13 0 -14 -17 -16 -137 -14 -76 0
-151 0 -168 -1 -26 -2 -23 -3 15 -11 72 -14 74 -16 38 -47 -60 -51 -118 -67
-118 -32 0 13 -7 20 -20 20 -12 0 -40 9 -62 20 -23 11 -48 20 -55 20 -21 0
-15 -16 12 -30 14 -7 25 -22 25 -32 0 -21 -18 -24 -26 -4 -4 10 -15 13 -40 9
-19 -3 -40 -1 -48 6 -7 6 -47 15 -87 19 -74 7 -74 7 -77 39 -2 17 -10 34 -19
37 -22 9 -26 1 -13 -24 6 -12 9 -28 6 -36 -7 -19 -66 -18 -95 2 -17 13 -25 14
-31 5 -5 -9 -25 -10 -69 -5 -53 6 -65 11 -86 38 -25 30 -25 31 -31 9 -8 -31
-64 -33 -64 -4 0 29 -15 33 -35 11 -24 -26 -32 -25 -39 6 -5 19 -10 24 -18 16
-7 -7 -4 -19 11 -41 l22 -31 -26 0 c-14 0 -28 -7 -32 -16 -3 -8 -12 -13 -19
-10 -8 3 -14 -1 -14 -10 0 -12 -6 -15 -22 -10 -13 3 -26 6 -30 6 -5 0 -8 7 -8
15 0 26 -48 18 -67 -12 l-18 -27 -5 29 c-5 27 -9 30 -49 33 -48 4 -49 -12 -1
-23 17 -4 30 -13 30 -20 0 -11 -12 -13 -52 -8 -59 6 -81 19 -58 33 8 5 12 12
8 15 -3 3 -13 -1 -21 -10 -20 -19 -27 -19 -27 0 0 8 -4 15 -9 15 -17 0 -30
-26 -24 -48 9 -36 -13 -52 -73 -52 -31 0 -54 -4 -54 -10 0 -6 -10 -2 -22 9
-15 14 -18 24 -11 33 6 9 6 20 -2 35 -11 21 -12 22 -27 3 -9 -10 -14 -20 -12
-23 3 -2 -1 -16 -7 -30 -13 -28 -44 -38 -71 -23 -12 7 -28 7 -50 -2 -28 -10
-35 -9 -54 9 -19 18 -23 19 -37 5 -18 -19 -39 -20 -55 -4 -8 8 -15 8 -25 -1
-11 -8 -22 -9 -42 -1 -15 6 -36 8 -45 5 -10 -3 -21 -1 -25 5 -4 7 -25 10 -48
8 -37 -3 -43 0 -55 26 -12 24 -18 27 -44 22 -17 -3 -34 -6 -39 -6 -4 0 -9 -10
-12 -22 -3 -22 -4 -22 -12 -3 -5 11 -18 32 -29 47 -17 24 -22 26 -35 14 -21
-19 -91 -12 -111 11 -21 24 -60 46 -60 34 0 -6 10 -17 23 -26 21 -15 14 -16
-98 -14 -240 3 -260 1 -285 -26 -18 -19 -26 -22 -37 -14 -7 6 -13 8 -13 3 0
-4 -14 6 -31 24 -17 17 -28 36 -25 41 4 5 2 12 -4 16 -5 3 -10 15 -10 25 0 31
-32 90 -50 90 -8 0 -26 7 -39 16 -22 16 -24 15 -47 -11 l-24 -28 -41 18 c-40
19 -42 24 -25 66 5 11 -4 24 -30 44 -33 25 -42 27 -98 22 -129 -10 -182 -56
-152 -129 9 -20 17 -50 18 -67 1 -20 9 -33 20 -37 35 -11 16 -30 -82 -79 -112
-56 -143 -59 -180 -17 -24 27 -80 67 -80 58 0 -3 -30 8 -66 24 -36 17 -77 30
-90 30 -13 0 -24 3 -24 6 0 9 24 30 44 37 15 6 17 10 8 19 -7 7 -12 23 -12 37
0 35 -25 104 -39 109 -6 2 -11 10 -11 18 0 8 -5 14 -11 14 -7 0 -9 9 -6 21 4
17 3 19 -6 10 -15 -15 -52 -14 -66 3 -10 12 -16 12 -42 -1 -22 -11 -34 -12
-41 -5 -8 8 -18 5 -36 -9 -18 -14 -34 -18 -54 -14 -27 6 -28 5 -22 -19 5 -20
2 -26 -11 -26 -11 0 -16 -7 -14 -22 2 -13 -1 -30 -6 -38 -5 -8 -10 -19 -11
-25 -14 -109 -14 -115 1 -121 16 -7 21 -44 5 -44 -19 0 -10 -59 16 -115 29
-61 27 -74 -11 -57 -26 12 -35 55 -14 68 8 4 7 9 -2 15 -22 14 -29 10 -29 -15
0 -29 -22 -49 -44 -40 -10 4 -16 1 -16 -9 0 -9 -13 -18 -30 -22 -16 -3 -40
-15 -53 -25 -14 -11 -36 -24 -51 -30 -21 -8 -26 -16 -26 -45 0 -28 -4 -35 -19
-35 -23 0 -42 -22 -33 -36 4 -6 15 -14 26 -17 15 -6 17 -14 12 -39 -3 -18 -13
-36 -22 -41 -21 -12 0 -37 32 -37 27 0 39 -16 35 -48 -2 -20 1 -23 18 -17 11
3 30 0 42 -7 17 -10 23 -10 26 -1 8 22 23 14 23 -10 0 -28 29 -57 57 -57 12 0
25 -11 32 -26 9 -21 14 -24 26 -14 8 7 15 23 15 36 0 20 5 24 30 24 19 0 30 5
30 14 0 8 9 21 20 29 15 10 19 24 18 60 0 26 -4 47 -9 47 -5 0 -9 6 -9 13 0 8
-9 22 -20 32 l-20 18 22 24 c16 17 30 22 51 19 46 -7 53 -21 34 -61 -24 -51
-21 -73 14 -102 28 -24 31 -31 26 -70 -3 -33 -1 -43 10 -43 8 0 17 -9 20 -20
4 -14 14 -20 32 -20 14 0 44 -12 66 -27 34 -23 37 -27 19 -33 -18 -7 -17 -8 5
-15 16 -5 26 -3 32 6 6 11 11 11 21 1 18 -18 27 -15 38 14 6 14 14 23 20 19 5
-3 7 -12 4 -20 -7 -16 31 -39 52 -31 8 3 24 0 35 -7 15 -9 21 -9 27 0 7 11 82
8 82 -4 0 -17 -126 -130 -177 -158 -34 -20 -79 -57 -103 -85 -52 -62 -158
-130 -171 -109 -5 8 -9 19 -9 26 0 15 -31 32 -47 26 -15 -5 -33 36 -33 74 0
21 -2 24 -15 13 -13 -10 -15 -9 -15 12 0 13 -5 29 -11 35 -8 8 -8 13 0 17 6 4
11 16 11 26 0 10 8 23 17 29 14 7 17 22 17 67 -1 48 -5 61 -23 72 -11 8 -21
21 -21 28 0 20 -23 17 -53 -6 -14 -11 -28 -20 -32 -20 -13 0 -44 -45 -45 -63
0 -10 -11 -29 -25 -43 -23 -23 -24 -28 -14 -69 7 -26 17 -45 25 -45 16 0 17
-19 3 -79 -9 -39 -8 -45 11 -58 16 -12 18 -18 10 -28 -16 -19 -4 -35 26 -35
13 0 24 -5 24 -11 0 -8 16 -9 50 -5 38 5 54 3 65 -8 13 -13 11 -17 -15 -36
-17 -12 -54 -34 -83 -49 -28 -16 -79 -43 -112 -61 -33 -17 -100 -49 -150 -70
-49 -21 -120 -52 -157 -69 -37 -17 -79 -31 -93 -31 -37 0 -105 -41 -111 -68
-7 -24 19 -62 41 -62 7 0 34 17 61 39 54 42 206 139 233 148 62 20 212 90 241
112 19 15 49 30 67 34 29 6 32 4 38 -22 8 -40 34 -59 72 -57 72 3 98 74 46
128 l-26 28 36 15 c19 8 59 28 87 45 49 29 54 30 70 15 24 -22 60 -4 60 29 0
27 30 50 93 72 53 19 68 6 43 -39 -10 -17 -29 -41 -43 -53 -30 -26 -130 -291
-114 -307 14 -14 41 -1 41 22 0 10 15 45 33 77 24 44 39 60 57 62 14 2 35 8
46 13 35 18 67 -5 61 -44 -6 -46 27 -97 63 -97 16 0 39 -4 52 -9 17 -6 34 -4
61 9 21 11 52 20 69 22 24 2 35 11 51 40 10 21 23 38 28 38 5 0 9 8 9 19 0 10
9 21 20 24 12 3 20 14 20 26 0 25 17 27 47 6 19 -13 23 -13 30 -1 4 8 24 16
43 18 19 2 35 8 35 15 0 18 17 31 45 35 20 2 25 -1 25 -19 0 -33 13 -38 26 -9
13 29 27 33 35 12 9 -23 53 -29 80 -11 21 14 25 14 30 1 6 -17 55 -36 92 -36
24 0 25 1 7 20 -15 16 -16 22 -5 36 8 8 22 13 32 10 11 -2 22 2 25 10 3 8 19
14 40 14 33 0 53 -12 126 -76 32 -27 31 -7 -2 35 l-32 40 24 16 c29 18 61 10
52 -14 -4 -10 2 -8 18 7 29 27 47 28 47 3 0 -17 7 -19 58 -17 32 1 64 6 71 10
7 5 23 4 34 -2 37 -18 80 -26 125 -23 34 2 47 -1 58 -17 8 -12 31 -23 54 -27
22 -4 42 -11 46 -16 8 -13 24 -11 21 3 -1 9 11 12 36 12 l38 -2 -20 22 c-22
23 -28 46 -12 46 5 0 14 -7 21 -15 16 -19 29 -19 51 1 18 16 109 28 109 14 0
-5 3 -16 6 -25 6 -14 1 -16 -27 -15 -79 5 -93 -7 -34 -29 20 -7 41 -21 48 -32
6 -10 19 -19 29 -19 9 0 20 -4 23 -10 3 -5 17 -10 31 -10 14 0 35 -5 46 -11
27 -15 40 1 21 26 -11 14 -17 16 -20 8 -8 -21 -43 -15 -43 7 0 11 -12 26 -29
35 -29 14 -29 16 -15 45 13 25 18 28 35 19 11 -5 28 -8 37 -5 12 4 21 -2 27
-17 6 -13 18 -21 29 -20 40 3 66 -15 66 -47 0 -26 4 -30 26 -30 25 0 26 1 12
23 -8 12 -13 27 -11 33 4 11 15 10 126 -10 19 -4 27 -1 27 9 0 9 -9 15 -23 15
-13 0 -32 9 -42 20 -10 12 -25 18 -33 15 -15 -5 -44 24 -36 37 7 11 77 -12
100 -33 15 -14 23 -16 32 -7 8 8 14 4 23 -15 7 -15 21 -30 33 -33 21 -7 76
-11 76 -6 0 12 -34 51 -41 46 -18 -10 -21 26 -4 43 16 15 16 18 1 28 -32 24
-19 38 27 30 23 -4 59 -10 81 -14 28 -4 41 -12 47 -28 8 -22 6 -23 -41 -23
-30 0 -54 6 -64 15 -20 20 -26 19 -26 -4 0 -15 7 -19 29 -19 39 1 51 -8 51
-42 0 -23 -3 -27 -20 -23 -21 5 -28 -11 -10 -22 5 -3 10 -16 10 -28 1 -22 1
-22 17 -2 15 19 15 19 10 -12 -5 -27 -3 -32 20 -38 32 -8 41 1 25 25 -16 26
-15 49 2 56 18 7 9 34 -11 34 -8 0 -13 7 -11 18 3 13 14 17 52 17 59 0 78 -19
57 -58 -7 -14 -10 -31 -6 -38 6 -9 0 -11 -23 -6 -29 6 -32 4 -32 -18 0 -20 5
-25 26 -25 14 0 35 -5 47 -12 34 -18 69 -17 61 2 -15 37 -15 52 1 77 16 24 19
25 30 9 8 -11 15 -13 20 -7 10 18 43 12 58 -9 12 -17 19 -19 41 -10 21 8 26
15 21 30 -3 11 -2 20 3 20 13 0 33 -26 53 -69 13 -26 18 -30 18 -16 1 11 4 30
7 42 5 18 1 25 -20 33 -15 5 -25 14 -21 19 7 12 63 -5 87 -27 14 -12 20 -12
33 -2 11 9 18 10 29 1 11 -9 15 -9 19 1 3 9 12 4 26 -14 13 -17 32 -28 46 -28
22 0 24 2 14 26 -5 15 -8 27 -7 28 2 1 15 7 30 14 27 11 27 11 22 -18 -7 -33
15 -92 33 -86 6 3 13 -4 16 -15 4 -17 37 -29 37 -13 0 11 -23 49 -46 77 -29
35 -31 57 -5 50 13 -3 20 2 24 18 6 21 7 21 30 6 13 -8 34 -17 48 -19 19 -2
25 -10 27 -36 2 -18 -1 -32 -7 -32 -6 0 -11 11 -11 25 0 14 -5 25 -11 25 -7 0
-9 -10 -4 -27 4 -16 8 -33 9 -39 3 -18 27 -44 36 -39 11 7 50 -71 50 -100 0
-14 5 -25 10 -25 6 0 10 8 8 17 -4 26 31 29 48 4 21 -29 49 -26 73 8 12 16 21
32 21 36 0 4 9 20 21 36 21 30 49 39 49 15 0 -21 24 -26 109 -21 61 4 80 2 84
-9 7 -17 45 -27 154 -41 37 -4 64 -13 67 -21 4 -9 22 -14 55 -14 27 0 52 -4
55 -9 3 -4 31 -11 62 -15 30 -3 69 -13 84 -21 47 -24 67 -19 94 24 26 41 34
96 21 143 -6 23 -3 29 16 37 21 9 22 10 4 10 -26 1 -50 37 -30 45 8 3 27 1 42
-4 15 -5 47 -14 70 -20 30 -7 46 -18 55 -38 7 -15 21 -28 31 -30 17 -4 17 -2
3 26 -8 16 -12 32 -9 35 3 4 -2 9 -11 13 -9 3 -16 10 -16 15 0 6 9 5 20 -1 17
-9 20 -7 26 15 3 14 8 25 9 25 2 0 26 -11 54 -26 35 -17 51 -31 51 -45 0 -15
7 -19 30 -19 28 0 30 2 19 22 -9 17 -8 24 5 34 14 10 23 9 44 -2 15 -8 32 -14
39 -14 7 0 17 -8 22 -17 10 -17 12 -17 25 -1 18 24 24 23 28 -4 2 -16 12 -24
36 -29 32 -6 52 4 32 16 -5 3 -10 17 -10 31 0 15 -6 24 -15 24 -21 0 -19 46 1
54 22 8 53 -20 47 -43 -2 -9 2 -23 10 -29 11 -10 20 -8 41 9 25 20 29 20 59 6
28 -14 33 -14 40 -1 5 8 6 22 3 30 -3 8 1 14 8 14 8 0 16 6 19 13 3 8 12 2 26
-15 13 -16 28 -25 36 -21 8 3 15 0 15 -7 0 -7 11 -21 25 -32 14 -11 25 -28 25
-37 0 -15 8 -18 40 -18 22 0 37 4 34 8 -3 5 -12 9 -20 9 -8 0 -14 8 -14 18 0
9 -9 31 -20 47 -24 36 -25 45 -6 45 7 0 16 -9 19 -21 4 -17 10 -19 29 -14 13
4 26 13 30 19 4 6 12 -2 19 -21 13 -38 15 -39 37 -17 14 15 17 15 28 -1 8 -11
18 -14 26 -9 7 5 29 8 48 9 36 0 40 3 40 31 0 10 -7 14 -22 12 -30 -4 -39 39
-11 49 10 4 21 10 24 15 3 5 20 10 37 11 18 1 32 6 32 11 0 5 23 6 51 3 49 -6
51 -5 35 11 -12 14 -13 21 -4 30 9 9 8 16 -5 30 -24 26 -23 50 1 30 9 -9 26
-18 37 -20 12 -2 21 -13 23 -26 4 -24 22 -31 22 -8 0 12 29 32 35 24 1 -2 6
-11 12 -21 9 -16 11 -17 22 -3 11 13 11 16 -3 16 -9 0 -16 4 -16 9 0 5 -9 11
-20 14 -11 3 -20 10 -20 16 0 6 14 4 36 -5 20 -8 39 -13 42 -10 3 4 13 -1 22
-9 16 -14 18 -14 23 0 4 8 2 26 -3 39 -7 20 -5 25 11 29 10 3 19 11 19 17 0 7
-6 10 -14 7 -7 -3 -34 -9 -60 -12 -31 -5 -46 -12 -46 -22 0 -10 -6 -13 -16 -9
-9 3 -20 6 -25 6 -6 0 -15 14 -21 31 -9 26 -14 30 -35 24 -24 -6 -24 -5 -9 17
21 29 20 38 -3 38 -10 0 -22 7 -25 16 -4 9 -2 13 6 8 6 -4 27 -7 46 -8 34 -1
61 -26 28 -26 -9 0 -16 -4 -16 -10 0 -5 6 -7 14 -4 8 3 19 -3 25 -15 6 -11 17
-18 25 -15 8 3 16 1 20 -4 6 -11 64 -3 72 10 3 5 -3 12 -15 15 -14 3 -21 13
-21 28 0 13 -3 30 -6 39 -8 21 14 21 38 -1 20 -18 106 -35 113 -22 3 4 -13 10
-34 14 -22 4 -42 13 -45 21 -6 16 10 19 19 4 8 -13 55 -13 55 0 0 6 9 10 21
10 18 0 20 -4 15 -25 -4 -14 -2 -25 3 -25 12 0 25 56 16 70 -4 6 -14 8 -23 6
-10 -3 -30 -2 -47 3 -16 5 -25 10 -20 11 6 1 19 3 30 5 33 7 85 -6 85 -21 0
-20 41 -34 64 -22 10 5 27 8 37 5 32 -9 31 11 -1 28 -16 8 -30 19 -30 24 0 16
14 20 28 9 15 -13 18 -14 61 -16 20 -2 22 -5 13 -14 -15 -15 -16 -28 -2 -28 6
0 16 11 22 25 13 28 34 28 31 1 -1 -14 4 -16 23 -12 17 5 24 2 24 -9 0 -19 14
-19 62 2 29 13 41 25 45 46 5 25 9 28 32 23 26 -6 26 -6 -7 24 -23 21 -42 30
-68 30 -19 0 -46 7 -59 16 -14 9 -32 13 -41 10 -11 -4 -18 1 -21 14 -6 24 2
22 -103 26 -47 2 -87 4 -90 5 -3 1 -21 3 -40 4 -19 1 -46 5 -60 9 -23 7 -23 6
-7 -7 9 -8 17 -17 17 -21 0 -14 -41 -5 -60 14 -11 11 -28 20 -37 20 -17 -1
-17 -1 0 -11 9 -5 17 -15 17 -21 0 -15 -97 -4 -134 15 -28 15 -56 13 -56 -4 0
-5 -24 -7 -52 -5 -29 3 -56 5 -60 6 -5 0 2 11 14 25 19 23 29 26 73 23 34 -2
50 1 51 10 1 6 2 17 3 23 1 9 37 10 129 7 99 -4 121 -3 101 6 -14 6 -33 17
-42 25 -9 7 -23 11 -31 8 -8 -3 -22 0 -31 7 -14 10 -15 16 -6 34 6 12 21 22
31 22 11 0 20 5 20 10 0 6 -13 10 -29 10 -41 0 -91 20 -91 36 0 8 -7 14 -15
14 -8 0 -15 6 -15 13 0 13 44 16 57 4 3 -4 22 -7 41 -7 20 0 43 -6 51 -14 9
-8 43 -17 76 -21 33 -3 80 -8 103 -10 24 -3 48 -8 54 -11 13 -8 28 15 28 44 0
15 6 22 20 22 11 0 20 -3 20 -7 0 -5 9 -19 19 -32 17 -22 20 -23 35 -9 23 24
171 39 186 19 7 -9 47 -8 56 2 13 13 -18 27 -61 27 -37 1 -39 2 -21 15 11 8
18 16 15 18 -11 10 -59 16 -59 8 0 -5 -9 -7 -20 -4 -12 3 -20 0 -20 -7 0 -13
-30 -12 -270 6 -30 3 -95 6 -145 8 -49 2 -141 11 -204 20 -63 9 -116 16 -119
16 -2 0 6 12 17 26 23 30 100 84 120 84 7 0 30 13 50 28 44 34 155 92 196 103
17 4 56 14 88 23 32 9 70 16 85 16 42 0 92 35 92 64 0 60 -60 70 -124 21 -18
-14 -39 -25 -45 -25 -7 0 -25 -7 -39 -15 -15 -8 -67 -30 -115 -50 -48 -19
-107 -47 -130 -62 -23 -15 -76 -35 -117 -45 -134 -34 -195 -47 -199 -42 -2 2
1 4 7 4 22 0 52 40 52 68 -1 58 -60 82 -107 43 -25 -20 -29 -77 -6 -85 7 -3
13 -12 13 -20 0 -11 -7 -13 -27 -7 -17 4 -37 3 -50 -4 -22 -11 -22 -12 -3 -28
28 -24 25 -36 -15 -53 -31 -12 -38 -12 -70 3 -40 19 -45 33 -12 33 22 1 22 1
-3 15 -14 8 -42 14 -62 15 -47 0 -55 13 -29 46 12 15 21 33 21 40 0 7 8 19 18
26 9 7 22 23 27 35 9 20 129 123 144 123 3 0 29 20 56 45 65 59 113 101 149
129 22 17 27 27 22 44 -13 40 -44 25 -134 -65z m-984 -340 c-4 -21 -55 -30
-71 -14 -8 8 -3 11 15 11 15 0 30 5 33 10 10 17 27 11 23 -7z m-766 -11 c20
-20 -7 -40 -32 -24 -11 6 -31 12 -45 12 -22 0 -32 10 -21 21 10 9 86 3 98 -9z
m508 4 c0 -22 -17 -28 -40 -14 -28 18 -25 28 10 28 19 0 30 -5 30 -14z m605 4
c3 -5 1 -10 -4 -10 -6 0 -11 5 -11 10 0 6 2 10 4 10 3 0 8 -4 11 -10z m-1245
-20 c0 -11 -4 -20 -9 -20 -11 0 -22 26 -14 34 12 12 23 5 23 -14z m288 -21 c2
-9 -5 -19 -14 -23 -21 -8 -50 17 -39 34 10 16 49 8 53 -11z m404 -26 c-35 -28
-65 -4 -36 28 16 18 18 18 35 2 16 -16 16 -19 1 -30z m-1624 31 c31 -9 27 -21
-9 -29 -37 -8 -99 2 -99 16 0 6 8 8 18 5 9 -3 24 -1 32 4 18 11 27 12 58 4z
m1080 -42 c3 -9 -2 -13 -14 -10 -9 1 -19 9 -22 16 -3 9 2 13 14 10 9 -1 19 -9
22 -16z m-78 -2 c0 -5 -4 -10 -10 -10 -5 0 -10 5 -10 10 0 6 5 10 10 10 6 0
10 -4 10 -10z m505 -19 c3 -5 1 -12 -5 -16 -5 -3 -10 1 -10 9 0 18 6 21 15 7z
m349 0 c3 -5 -3 -11 -14 -14 -13 -3 -20 0 -20 9 0 15 26 19 34 5z m-3044 -51
c0 -5 -4 -10 -10 -10 -5 0 -10 5 -10 10 0 6 5 10 10 10 6 0 10 -4 10 -10z
m4543 -122 c4 -10 7 -10 18 0 19 17 43 15 63 -7 25 -27 7 -34 -72 -26 -72 8
-103 22 -80 36 20 13 66 11 71 -3z m7 -322 c0 -3 -4 -8 -10 -11 -5 -3 -10 -1
-10 4 0 6 5 11 10 11 6 0 10 -2 10 -4z m155 -44 c-7 -8 -35 7 -35 18 0 6 7 6
20 -2 10 -7 17 -14 15 -16z m-6395 -61 c0 -12 -29 -23 -41 -15 -18 10 -9 24
16 24 14 0 25 -4 25 -9z m5450 -81 c0 -5 -4 -10 -10 -10 -5 0 -10 5 -10 10 0
6 5 10 10 10 6 0 10 -4 10 -10z m300 1 c0 -6 -4 -13 -10 -16 -5 -3 -10 1 -10
9 0 9 5 16 10 16 6 0 10 -4 10 -9z m80 -11 c0 -5 -4 -10 -10 -10 -5 0 -10 5
-10 10 0 6 5 10 10 10 6 0 10 -4 10 -10z m190 -18 c0 -14 -11 -21 -26 -15 -21
8 -17 23 6 23 11 0 20 -4 20 -8z m-5229 -125 c-1 -12 -15 -9 -19 4 -3 6 1 10
8 8 6 -3 11 -8 11 -12z m-6 -36 c3 -6 -4 -19 -16 -30 -22 -21 -22 -21 -36 -1
-8 11 -11 25 -8 30 8 13 52 13 60 1z m945 -5 c0 -11 -19 -15 -25 -6 -3 5 1 10
9 10 9 0 16 -2 16 -4z m-850 -17 c0 -8 12 -10 36 -6 28 5 35 3 32 -10 -2 -11
-17 -16 -51 -17 -56 -2 -60 0 -46 25 11 21 29 25 29 8z m4574 1 c15 -6 26 -17
26 -29 0 -23 -25 -47 -34 -32 -4 6 -14 7 -23 4 -12 -5 -15 -2 -10 10 3 9 2 17
-3 17 -6 0 -10 -7 -10 -17 0 -22 -6 -14 -14 21 -6 23 -4 27 8 23 9 -4 16 -2
16 3 0 13 12 13 44 0z m-4392 -27 c29 -26 22 -33 -34 -33 -41 1 -49 3 -35 11
9 5 17 17 17 24 0 20 29 19 52 -2z m220 0 c26 -23 22 -33 -12 -33 -16 0 -30 4
-30 9 0 5 -3 16 -6 25 -8 22 24 21 48 -1z m1719 -27 c4 -16 15 -36 24 -46 13
-14 13 -19 2 -28 -17 -15 -27 -6 -28 27 -1 17 -3 20 -6 9 -7 -27 -20 -21 -26
12 -12 58 19 82 34 26z m159 19 c10 -12 10 -15 -4 -15 -9 0 -16 7 -16 15 0 8
2 15 4 15 2 0 9 -7 16 -15z m-232 -21 l23 -16 -21 -15 c-19 -13 -24 -13 -31
-2 -11 17 -12 49 -1 49 4 0 18 -7 30 -16z m675 -9 c21 -29 16 -44 -13 -42 -20
1 -29 27 -10 27 6 0 10 5 10 11 0 6 -12 1 -26 -10 -28 -22 -44 -20 -44 5 0 13
31 32 55 33 6 0 18 -11 28 -24z m1937 15 c0 -5 -2 -10 -4 -10 -3 0 -8 5 -11
10 -3 6 -1 10 4 10 6 0 11 -4 11 -10z m-2780 -15 c6 -8 17 -13 23 -12 7 1 12
-5 12 -13 0 -16 -56 -20 -92 -6 -17 7 -16 9 6 27 28 23 35 23 51 4z m-605 -15
c3 -5 -1 -10 -9 -10 -9 0 -16 5 -16 10 0 6 4 10 9 10 6 0 13 -4 16 -10z
m-1312 -19 c6 -6 19 -11 28 -11 9 0 22 -7 29 -16 11 -12 11 -18 -1 -29 -12
-12 -19 -12 -46 2 -18 8 -33 21 -33 29 0 7 -12 14 -27 16 -14 2 -28 8 -30 15
-5 16 63 11 80 -6z m2398 9 c5 0 9 -5 9 -11 0 -15 -43 -7 -48 10 -3 10 0 12
12 8 10 -4 22 -7 27 -7z m2409 -15 c0 -16 -35 -21 -44 -6 -8 12 4 21 26 21 10
0 18 -7 18 -15z m-2241 -42 c1 -19 -26 -16 -33 3 -4 9 -1 23 6 31 10 13 13 12
19 -4 4 -10 8 -24 8 -30z m-1660 21 c11 -9 -25 -34 -49 -34 -28 0 -46 22 -34
41 5 8 72 2 83 -7z m1351 6 c0 -5 -4 -10 -10 -10 -5 0 -10 5 -10 10 0 6 5 10
10 10 6 0 10 -4 10 -10z m-257 -30 c4 -15 0 -20 -13 -20 -25 0 -36 20 -19 31
21 13 26 11 32 -11z m-79 -16 c18 -7 12 -24 -10 -24 -8 0 -14 7 -14 15 0 17 2
18 24 9z m1871 -4 c3 -5 -1 -10 -9 -10 -9 0 -16 5 -16 10 0 6 4 10 9 10 6 0
13 -4 16 -10z"/>
<path d="M5861 2171 c-8 -5 -21 -33 -28 -62 -12 -45 -11 -55 2 -75 22 -34 76
-33 104 2 27 34 27 38 -10 96 -31 49 -43 55 -68 39z"/>
<path d="M6327 2152 c-25 -27 -21 -60 8 -74 31 -14 55 3 55 41 0 48 -34 65
-63 33z"/>
<path d="M1939 2126 c-28 -9 -35 -17 -37 -42 -3 -27 2 -35 32 -54 41 -25 67
-21 90 15 15 22 15 28 2 54 -18 35 -41 42 -87 27z"/>
<path d="M4701 2114 c0 -11 3 -14 6 -6 3 7 2 16 -1 19 -3 4 -6 -2 -5 -13z"/>
<path d="M120 2102 c0 -17 38 -62 53 -62 15 0 6 41 -13 60 -25 25 -40 26 -40
2z"/>
<path d="M8744 2089 c-8 -14 11 -33 25 -25 16 10 13 36 -3 36 -8 0 -18 -5 -22
-11z"/>
<path d="M5950 1942 c0 -18 19 -24 37 -13 10 6 13 11 6 11 -6 0 -18 3 -27 6
-9 3 -16 1 -16 -4z"/>
<path d="M4226 1922 c6 -4 14 -16 18 -26 5 -14 10 -16 18 -8 12 12 -11 42 -34
42 -8 0 -9 -3 -2 -8z"/>
<path d="M3730 1890 c0 -13 28 -25 38 -16 3 4 0 11 -8 16 -20 13 -30 12 -30 0z"/>
<path d="M5700 1881 c0 -5 5 -13 10 -16 6 -3 10 -2 10 4 0 5 -4 13 -10 16 -5
3 -10 2 -10 -4z"/>
<path d="M4120 1865 c0 -8 5 -15 10 -15 6 0 10 7 10 15 0 8 -4 15 -10 15 -5 0
-10 -7 -10 -15z"/>
<path d="M6075 1870 c3 -5 18 -10 33 -10 21 0 24 2 12 10 -20 13 -53 13 -45 0z"/>
<path d="M6275 1860 c3 -5 13 -10 21 -10 8 0 12 5 9 10 -3 6 -13 10 -21 10 -8
0 -12 -4 -9 -10z"/>
<path d="M705 1852 c-3 -3 0 -11 6 -19 12 -14 69 -19 69 -5 0 9 -68 31 -75 24z"/>
<path d="M3820 1853 c0 -5 5 -15 10 -23 7 -11 12 -12 21 -3 6 6 8 16 5 22 -8
12 -36 15 -36 4z"/>
<path d="M4312 1852 c-20 -6 -3 -22 24 -22 15 0 24 -6 24 -15 0 -23 27 -29 46
-10 12 11 14 19 6 27 -12 12 -82 26 -100 20z"/>
<path d="M1615 1831 c-3 -5 2 -11 10 -15 8 -3 17 -1 20 3 3 5 -2 11 -10 15 -8
3 -17 1 -20 -3z"/>
<path d="M2815 1830 c3 -5 8 -10 11 -10 2 0 4 5 4 10 0 6 -5 10 -11 10 -5 0
-7 -4 -4 -10z"/>
<path d="M5211 1831 c-10 -6 -10 -10 -1 -16 13 -8 24 -1 19 14 -3 6 -10 7 -18
2z"/>
<path d="M5252 1829 c2 -6 8 -10 13 -10 5 0 11 4 13 10 2 6 -4 11 -13 11 -9 0
-15 -5 -13 -11z"/>
<path d="M2205 1820 c-3 -5 1 -10 9 -10 9 0 16 5 16 10 0 6 -4 10 -9 10 -6 0
-13 -4 -16 -10z"/>
<path d="M3940 1820 c0 -5 5 -10 10 -10 6 0 10 5 10 10 0 6 -4 10 -10 10 -5 0
-10 -4 -10 -10z"/>
<path d="M4010 1821 c0 -5 7 -11 15 -15 9 -3 15 0 15 9 0 8 -7 15 -15 15 -8 0
-15 -4 -15 -9z"/>
<path d="M5068 1823 c6 -2 18 -2 25 0 6 3 1 5 -13 5 -14 0 -19 -2 -12 -5z"/>
<path d="M5140 1820 c0 -5 5 -10 10 -10 6 0 10 5 10 10 0 6 -4 10 -10 10 -5 0
-10 -4 -10 -10z"/>
<path d="M2260 1805 c7 -8 19 -15 26 -15 8 0 11 6 8 15 -4 8 -15 15 -26 15
-17 0 -18 -3 -8 -15z"/>
<path d="M2590 1816 c0 -2 7 -6 15 -10 8 -3 15 -1 15 4 0 6 -7 10 -15 10 -8 0
-15 -2 -15 -4z"/>
<path d="M4510 1816 c0 -2 7 -7 16 -10 8 -3 12 -2 9 4 -6 10 -25 14 -25 6z"/>
<path d="M3150 1795 c0 -17 2 -18 24 -9 18 7 12 24 -10 24 -8 0 -14 -7 -14
-15z"/>
<path d="M4680 1785 c14 -16 40 -20 40 -6 0 9 -24 21 -42 21 -6 0 -6 -6 2 -15z"/>
<path d="M2328 1783 c12 -2 32 -2 45 0 12 2 2 4 -23 4 -25 0 -35 -2 -22 -4z"/>
<path d="M3345 1780 c3 -5 8 -10 11 -10 2 0 4 5 4 10 0 6 -5 10 -11 10 -5 0
-7 -4 -4 -10z"/>
<path d="M4787 1783 c-12 -11 -7 -33 7 -33 7 0 19 6 25 14 6 7 22 11 36 8 15
-2 25 0 25 7 0 12 -82 16 -93 4z"/>
<path d="M4950 1786 c0 -10 28 -13 41 -5 10 6 7 9 -13 9 -16 0 -28 -2 -28 -4z"/>
<path d="M2910 1750 c0 -5 12 -10 28 -9 24 0 25 1 7 9 -27 12 -35 12 -35 0z"/>
<path d="M3183 1700 c-19 -8 -33 -30 -18 -30 12 0 55 24 55 32 0 10 -8 9 -37
-2z"/>
<path d="M3260 1696 c0 -8 5 -18 10 -21 6 -3 10 3 10 14 0 12 -4 21 -10 21 -5
0 -10 -6 -10 -14z"/>
<path d="M8130 1540 c0 -5 5 -10 11 -10 5 0 7 5 4 10 -3 6 -8 10 -11 10 -2 0
-4 -4 -4 -10z"/>
<path d="M522 1513 c4 -21 33 -25 33 -3 0 8 -8 16 -18 18 -14 3 -18 -1 -15
-15z"/>
<path d="M7570 1430 c0 -5 5 -10 11 -10 5 0 7 5 4 10 -3 6 -8 10 -11 10 -2 0
-4 -4 -4 -10z"/>
<path d="M7620 1421 c0 -6 -11 -13 -25 -17 -42 -11 -28 -24 27 -24 38 0 59 -6
82 -24 42 -32 96 -26 96 11 0 20 -4 23 -21 18 -16 -5 -20 -3 -17 12 2 13 -2
17 -17 15 -35 -6 -95 0 -113 12 -7 4 -12 3 -12 -3z"/>
<path d="M8010 1420 c0 -5 5 -10 10 -10 6 0 10 5 10 10 0 6 -4 10 -10 10 -5 0
-10 -4 -10 -10z"/>
<path d="M8050 1420 c0 -5 5 -10 10 -10 6 0 10 5 10 10 0 6 -4 10 -10 10 -5 0
-10 -4 -10 -10z"/>
<path d="M8645 1370 c-3 -5 -1 -10 4 -10 6 0 11 5 11 10 0 6 -2 10 -4 10 -3 0
-8 -4 -11 -10z"/>
<path d="M8653 1333 c-20 -7 -15 -23 7 -23 11 0 20 4 20 9 0 13 -12 19 -27 14z"/>
<path d="M8485 1280 c-3 -5 -2 -10 4 -10 5 0 13 5 16 10 3 6 2 10 -4 10 -5 0
-13 -4 -16 -10z"/>
<path d="M8340 1273 c-49 -8 -51 -11 -25 -39 20 -22 27 -24 40 -14 8 7 13 16
10 20 -3 5 -1 11 5 15 12 7 14 26 3 24 -5 -1 -19 -4 -33 -6z"/>
<path d="M602 1198 c-20 -20 -15 -58 8 -58 26 0 46 36 29 56 -14 17 -21 18
-37 2z"/>
<path d="M8200 1189 c0 -8 -19 -10 -65 -5 -42 4 -65 3 -65 -4 0 -5 0 -13 0
-17 0 -4 14 -7 31 -7 27 -1 33 -6 43 -36 10 -33 13 -35 51 -32 53 5 66 18 37
40 l-22 17 30 18 c16 10 30 22 30 28 0 12 -13 12 -27 -2 -8 -8 -13 -8 -17 0
-9 14 -26 14 -26 0z"/>
<path d="M8375 1190 c3 -5 10 -10 16 -10 5 0 9 5 9 10 0 6 -7 10 -16 10 -8 0
-12 -4 -9 -10z"/>
<path d="M8270 1120 c0 -5 10 -10 23 -10 18 0 19 2 7 10 -19 13 -30 13 -30 0z"/>
<path d="M8000 990 c-27 -20 -26 -26 4 -32 14 -2 21 5 27 25 9 32 3 33 -31 7z"/>
<path d="M1418 993 c-22 -5 -24 -43 -3 -43 16 0 40 36 28 43 -5 2 -16 2 -25 0z"/>
<path d="M1340 980 c20 -13 33 -13 25 0 -3 6 -14 10 -23 10 -15 0 -15 -2 -2
-10z"/>
<path d="M7875 980 c3 -5 10 -10 16 -10 5 0 9 5 9 10 0 6 -7 10 -16 10 -8 0
-12 -4 -9 -10z"/>
<path d="M7915 961 c-10 -17 12 -21 25 -6 10 12 10 15 -3 15 -9 0 -18 -4 -22
-9z"/>
<path d="M7745 943 c-35 -5 -51 -18 -36 -27 6 -4 11 -2 11 3 0 20 28 11 48
-14 11 -14 26 -25 33 -25 8 -1 32 -7 54 -15 l40 -14 -25 19 c-13 10 -38 22
-55 26 l-30 7 28 4 c31 5 37 23 8 23 -11 0 -23 5 -26 10 -3 6 -9 9 -13 9 -4
-1 -20 -4 -37 -6z"/>
<path d="M7655 920 c4 -6 11 -8 16 -5 14 9 11 15 -7 15 -8 0 -12 -5 -9 -10z"/>
<path d="M7539 893 c5 -10 17 -27 26 -38 16 -19 16 -19 10 10 -6 28 -20 44
-38 45 -4 0 -3 -8 2 -17z"/>
<path d="M633 854 c-17 -8 -16 -39 1 -54 8 -6 25 -10 38 -8 18 2 23 9 23 33 0
25 -4 30 -25 32 -14 1 -31 -1 -37 -3z"/>
<path d="M7656 814 c-9 -23 3 -37 26 -31 14 4 22 -2 29 -20 6 -17 14 -23 25
-19 9 3 22 6 31 6 22 0 12 44 -12 49 -11 2 -23 8 -27 14 -11 18 -65 18 -72 1z"/>
<path d="M7550 805 c0 -13 25 -55 32 -55 6 0 7 6 4 13 -3 6 -9 20 -12 30 -6
15 -24 25 -24 12z"/>
<path d="M7642 761 c4 -13 18 -16 19 -4 0 4 -5 9 -11 12 -7 2 -11 -2 -8 -8z"/>
<path d="M150 726 c0 -28 24 -41 40 -21 16 20 5 45 -20 45 -14 0 -20 -7 -20
-24z"/>
<path d="M7500 731 c0 -13 26 -32 33 -24 14 13 6 33 -13 33 -11 0 -20 -4 -20
-9z"/>
<path d="M7375 630 c-22 -11 -45 -20 -52 -20 -13 0 -18 -31 -14 -85 3 -35 36
-85 56 -85 8 0 18 -7 23 -16 8 -13 18 -10 70 27 34 23 62 46 62 52 0 5 9 7 20
4 11 -3 20 -1 20 4 0 5 -5 9 -12 9 -6 0 -8 3 -5 7 4 3 -2 13 -14 21 -14 10
-19 21 -15 37 4 16 -1 25 -18 35 -13 7 -29 10 -34 6 -5 -3 -15 1 -22 9 -16 19
-18 19 -65 -5z"/>
<path d="M3920 625 c0 -8 6 -15 14 -15 22 0 28 17 10 24 -22 9 -24 8 -24 -9z"/>
<path d="M3461 620 c0 -8 4 -22 9 -30 12 -18 12 -2 0 25 -6 13 -9 15 -9 5z"/>
<path d="M7170 620 c0 -5 5 -10 10 -10 6 0 10 5 10 10 0 6 -4 10 -10 10 -5 0
-10 -4 -10 -10z"/>
<path d="M7244 615 c-8 -20 4 -35 27 -35 21 0 25 20 7 38 -16 16 -27 15 -34
-3z"/>
<path d="M2692 603 c2 -10 10 -18 18 -18 22 0 18 29 -3 33 -14 3 -18 -1 -15
-15z"/>
<path d="M7230 571 c0 -5 5 -13 10 -16 6 -3 10 -2 10 4 0 5 -4 13 -10 16 -5 3
-10 2 -10 -4z"/>
<path d="M3814 555 c3 -9 0 -25 -6 -35 -10 -16 -20 -18 -53 -14 -38 5 -39 4
-20 -11 11 -8 26 -13 33 -10 8 3 23 5 34 5 12 0 19 3 15 6 -3 4 0 19 8 35 19
35 19 39 -1 39 -10 0 -14 -5 -10 -15z"/>
<path d="M7580 554 c0 -17 22 -14 28 4 2 7 -3 12 -12 12 -9 0 -16 -7 -16 -16z"/>
<path d="M3290 551 c0 -11 26 -22 34 -14 3 3 3 10 0 14 -7 12 -34 11 -34 0z"/>
<path d="M364 529 c-3 -6 -1 -16 4 -21 13 -13 45 8 36 23 -7 12 -31 11 -40 -2z"/>
<path d="M4810 520 c0 -5 5 -10 11 -10 5 0 7 5 4 10 -3 6 -8 10 -11 10 -2 0
-4 -4 -4 -10z"/>
<path d="M6360 520 c0 -12 28 -25 36 -17 3 3 -4 10 -15 17 -15 7 -21 7 -21 0z"/>
<path d="M6590 522 c0 -12 23 -32 37 -32 18 0 16 27 -3 34 -21 8 -34 8 -34 -2z"/>
<path d="M4297 500 c3 -11 7 -20 9 -20 2 0 4 9 4 20 0 11 -4 20 -9 20 -5 0 -7
-9 -4 -20z"/>
<path d="M4515 511 c-3 -5 -1 -12 5 -16 5 -3 10 1 10 9 0 18 -6 21 -15 7z"/>
<path d="M6015 500 c10 -11 20 -18 23 -15 7 6 -18 35 -31 35 -5 0 -2 -9 8 -20z"/>
<path d="M6570 500 c0 -5 5 -10 11 -10 5 0 7 5 4 10 -3 6 -8 10 -11 10 -2 0
-4 -4 -4 -10z"/>
<path d="M4257 479 c-3 -13 -1 -19 6 -16 15 5 22 37 9 37 -5 0 -12 -9 -15 -21z"/>
<path d="M4225 480 c3 -5 8 -10 11 -10 2 0 4 5 4 10 0 6 -5 10 -11 10 -5 0 -7
-4 -4 -10z"/>
<path d="M5077 305 c-10 -7 -14 -16 -9 -19 5 -3 15 1 22 9 17 21 9 27 -13 10z"/>
<path d="M4025 191 c46 -19 119 -31 128 -22 20 20 -6 31 -76 30 -47 0 -65 -3
-52 -8z"/>
</g>
</svg>
